<svg xmlns="http://www.w3.org/2000/svg" xmlns:xlink="http://www.w3.org/1999/xlink" viewBox="0 0 1500 1500">
  <defs>
    <style>
      .cls-1 {
        opacity: 0.3;
      }

      .cls-2 {
        fill: #ed0056;
      }

      .cls-3 {
        fill: url(#New_Gradient_Swatch_2);
      }

      .cls-4 {
        fill: #1a157c;
      }
    </style>
    <linearGradient id="New_Gradient_Swatch_2" data-name="New Gradient Swatch 2" x1="719.93" y1="358" x2="719.93" y2="933.3" gradientUnits="userSpaceOnUse">
      <stop offset="0" stop-color="#fe5d49"/>
      <stop offset="0.21" stop-color="#ff0433"/>
      <stop offset="0.23" stop-color="#fa0448"/>
      <stop offset="0.27" stop-color="#f40365"/>
      <stop offset="0.31" stop-color="#ef027a"/>
      <stop offset="0.35" stop-color="#ec0287"/>
      <stop offset="0.39" stop-color="#eb028b"/>
      <stop offset="0.41" stop-color="#df0288"/>
      <stop offset="0.46" stop-color="#c20182"/>
      <stop offset="0.51" stop-color="#ad017d"/>
      <stop offset="0.56" stop-color="#a0017a"/>
      <stop offset="0.61" stop-color="#9c0179"/>
      <stop offset="0.63" stop-color="#910176"/>
      <stop offset="0.68" stop-color="#740070"/>
      <stop offset="0.72" stop-color="#5f006b"/>
      <stop offset="0.77" stop-color="#520068"/>
      <stop offset="0.81" stop-color="#4e0067"/>
      <stop offset="0.83" stop-color="#430064"/>
      <stop offset="0.87" stop-color="#26005e"/>
      <stop offset="0.92" stop-color="#110059"/>
      <stop offset="0.96" stop-color="#040056"/>
      <stop offset="1" stop-color="#005"/>
    </linearGradient>
  </defs>
  <g id="shade">
    <g class="cls-1">
      <path class="cls-2" d="M712,723c-20.23,16.44-40.66,32.47-61.34,48.33-.47,0-.94-.08-1.39-.12q-26.64-2.64-53.27-4.55,28.89-16.38,58-32.55Q683,728.38,712,723Z"/>
      <path class="cls-2" d="M650.7,771.33c-3.84,16-5.64,23.83-8.68,37.32-.09.34-.17.76-.26,1.12-8.72,5.53-13,8.19-21.2,13.26q14.4-25.89,28.75-51.82C649.76,771.25,650.23,771.31,650.7,771.33Z"/>
      <path class="cls-2" d="M810.59,664.36q-17.6,23-35.7,45.51c-11.71,2.49-17.6,3.77-29.38,6.35-5.8-19.18-11.65-38.29-17.48-57.47Q769.42,660.82,810.59,664.36Z"/>
      <path class="cls-2" d="M876.93,815.43c-23.19,2.06-46.24,3.3-69.51,4.22C826.78,805,845.18,789.06,863,772.51,869.2,790.67,872,799.29,876.93,815.43Z"/>
      <path class="cls-2" d="M631.38,593.6q-27,23.05-54,46.07-1.64-23.92-2.59-47.74C593.66,592.09,612.55,592.61,631.38,593.6Z"/>
      <path class="cls-2" d="M586.39,704.27c-12.34-8.09-18.45-12.08-30.47-19.85q10.49-22.47,21.46-44.75Q581.87,671.92,586.39,704.27Z"/>
      <path class="cls-2" d="M815.15,884.25a147.36,147.36,0,0,1-4.38,17c-6.54-6-10-9.27-17.2-16.17a211.53,211.53,0,0,0,6.15-21C806.2,872.59,809.28,876.65,815.15,884.25Z"/>
      <path class="cls-2" d="M945.37,760.39c-43.61-33.94-88.31-66.07-134.78-96q33.33-17.45,66.48-35.19,2.91,41.55,4.73,83.15c9.34-8.28,13.86-12.48,22.7-20.79Q925.29,725.75,945.37,760.39Z"/>
      <path class="cls-2" d="M728,658.75q-7.9,32.18-16,64.25-11.67-28.83-23.26-57.72c-17,11.47-34,22.85-51,34.29,6.47,13.94,9.72,20.88,16.21,34.54-16.54-2.86-25-4.2-41.32-6.5,9.92-11.81,15.2-18.13,25.13-30H638c.12-.22.24-.47.35-.64q10.53-20.18,21.06-40.35,14.8,3.47,29.58,7.24C704.63,661.69,712.42,660.66,728,658.75Z"/>
      <path class="cls-2" d="M678.17,620.6c-11.8,10.77-23.57,21.56-35.33,32.25q-32.57-7.29-65.46-13.18Q627.6,629.16,678.17,620.6Z"/>
      <path class="cls-2" d="M654,734.11q-29.1,16.21-58,32.55c6.33-15.26,9.52-22.87,15.88-38.15.26-.32.51-.57.75-.9C629,729.91,637.45,731.25,654,734.11Z"/>
    </g>
  </g>
  <g id="grid">
    <path class="cls-3" d="M396.16,767.27a4.09,4.09,0,0,1-1,3.41,2.89,2.89,0,0,1-2.39.88h-.06c-2-.23-3.71-2.33-3.95-4.73a4.25,4.25,0,0,1,1.06-3.44,2.76,2.76,0,0,1,2.34-.82C394.2,762.78,395.94,764.86,396.16,767.27Zm43.25-311.42a2.49,2.49,0,0,0,1.1-.11c1.87-.5,4.14-2.77,5.13-5.08a3.7,3.7,0,0,0,.19-3.12,2,2,0,0,0-2.49-.75,9.38,9.38,0,0,0-5.08,5.07,3.79,3.79,0,0,0-.18,3.18A1.81,1.81,0,0,0,439.41,455.85Zm310.1,338.07a5.45,5.45,0,0,0-4.39-6.25A5.21,5.21,0,0,0,739,792a5.44,5.44,0,0,0,4.37,6.17l.38.06A5.2,5.2,0,0,0,749.51,793.92ZM420.64,760.53h0a3.11,3.11,0,0,0-2.62.94,4.07,4.07,0,0,0-1,3.45,5.41,5.41,0,0,0,4.29,4.86h.08a3.36,3.36,0,0,0,2.64-1,4.07,4.07,0,0,0,1-3.4C424.74,762.93,422.86,760.77,420.64,760.53Zm246.64,65.82-.26-.05a5.28,5.28,0,0,0-3.85,1.07,3.73,3.73,0,0,0-1.35,2.62c-.17,2.34,1.83,4.56,4.61,5l.28,0a5.2,5.2,0,0,0,3.81-1,3.85,3.85,0,0,0,1.39-2.61C672.1,829.08,670,826.78,667.28,826.35ZM420.87,464.88a3.28,3.28,0,0,0,1.09-.11c1.75-.56,3.89-2.82,4.81-5.18a3.51,3.51,0,0,0,.11-3.11,1.88,1.88,0,0,0-2.32-.73c-1.82.59-3.91,2.85-4.83,5.15a4,4,0,0,0-.13,3.22A1.7,1.7,0,0,0,420.87,464.88Zm563.81-42.4a3.21,3.21,0,0,0,.76.18,2.16,2.16,0,0,0,1.92-.67,3.25,3.25,0,0,0,.46-2.92,7.86,7.86,0,0,0-4.59-5.08,2.25,2.25,0,0,0-2.67.52,2.89,2.89,0,0,0-.39,2.83A8,8,0,0,0,984.68,422.48Zm-61.4-22.93a5,5,0,0,0,.7.15,2.38,2.38,0,0,0,2.21-.77,2.78,2.78,0,0,0,.32-2.54,7.54,7.54,0,0,0-4.78-4.47,2.8,2.8,0,0,0-2.92.56,2.77,2.77,0,0,0-.29,2.46A7.82,7.82,0,0,0,923.28,399.55ZM751.76,807.38a5.07,5.07,0,1,0-1.84,10l.46.08a5,5,0,0,0,5.6-4A5.24,5.24,0,0,0,751.76,807.38ZM796.45,371a1.79,1.79,0,0,1,.4-1.44,4.33,4.33,0,0,1,3.49-.89l.15,0c1.93.25,4.06,1.25,4.37,2.71a1.66,1.66,0,0,1-.42,1.52,4.13,4.13,0,0,1-3.47.92h-.13C798.58,373.59,796.71,372.36,796.45,371Zm4.48,2.13Zm97.85,23.21a6.53,6.53,0,0,0,.68.13,2.46,2.46,0,0,0,2.32-.73,2.31,2.31,0,0,0,.3-2.32,7.17,7.17,0,0,0-4.82-4.12,2.81,2.81,0,0,0-3,.58,2.17,2.17,0,0,0-.26,2.26A7.24,7.24,0,0,0,898.78,396.35ZM835.3,394l.14,0a3.8,3.8,0,0,0,3.27-.91,2.49,2.49,0,0,0,.57-2.21c-.33-1.83-2.46-3.48-4.89-3.83a3.71,3.71,0,0,0-3.24.95,2.45,2.45,0,0,0-.64,2.12C830.86,392,833,393.69,835.3,394ZM681.71,807l-.27,0a5.11,5.11,0,0,0-3.84,1,4.48,4.48,0,0,0-1.63,3,5.34,5.34,0,0,0,4.66,5.49l.26,0a5,5,0,0,0,3.79-1,4.34,4.34,0,0,0,1.67-2.92A5.32,5.32,0,0,0,681.71,807Zm402.34-221.59a1,1,0,0,0-.68-.29,1.31,1.31,0,0,0-.9.26c-.94.79-1.13,3-1.18,4-.08,2.32.35,5.39,1.35,6.3a1,1,0,0,0,.64.33,1.13,1.13,0,0,0,.86-.27c.83-.7,1.11-2.79,1.18-4C1085.48,589.32,1085.12,586.36,1084.05,585.43ZM980.84,908.48c-2.06-.47-4.4,1-5.31,3.35a4.24,4.24,0,0,0,.06,3.51,3.25,3.25,0,0,0,2.2,1.7,2.08,2.08,0,0,0,.36.06,5,5,0,0,0,5-3.36,4.48,4.48,0,0,0-.12-3.63A3.16,3.16,0,0,0,980.84,908.48Zm1.83-184.67a2.76,2.76,0,0,0-2.58.61A6.54,6.54,0,0,0,978,729c-.32,3.41,1.1,6.55,3.21,7.13l.43.1a2.8,2.8,0,0,0,2.12-.68,6.43,6.43,0,0,0,2.06-4.56C986.13,727.59,984.75,724.45,982.67,723.81Zm88.88-128c-.94.9-1,3.17-1,4.1a18,18,0,0,0,.39,3.27,277.78,277.78,0,0,1-11.06,28,3,3,0,0,0-.39-.33,1.21,1.21,0,0,0-.61-.21,1.59,1.59,0,0,0-1.15.38c-.81.69-1.33,2.26-1.46,4.29a12.14,12.14,0,0,0,.84,5.34l-2,14.25a2,2,0,0,0-.73.36c-.82.71-1.42,2.36-1.54,4.42,0,.48,0,1,0,1.54-5.95,4.38-10.11,7.19-17.1,11.67a4.21,4.21,0,0,0-2-2.85,1.83,1.83,0,0,0-2,.32,6.48,6.48,0,0,0-1.75,4.5c-.15,2.44.47,5.34,1.88,6.52l-.33,11.91a1.09,1.09,0,0,0,1,1.12l.1,0a1.1,1.1,0,0,0,1.17-1.08l.32-11.65a2.65,2.65,0,0,0,.39-.23c.93-.78,1.54-2.47,1.68-4.52a11.9,11.9,0,0,0,0-1.58c7.11-4.51,11.43-7.42,17.07-11.56a4,4,0,0,0,1.64,2.57,1.47,1.47,0,0,0,.52.18,1.54,1.54,0,0,0,1.17-.41c.84-.71,1.39-2.31,1.52-4.43a11.11,11.11,0,0,0-.84-5.31l2-14.2a1.25,1.25,0,0,0,.69-.32c.82-.69,1.36-2.27,1.47-4.33a12.6,12.6,0,0,0-.26-3.45c4.86-11,7.8-17.9,11.19-27.86l.12.14a1.24,1.24,0,0,0,.62.3,1.17,1.17,0,0,0,1-.35c.88-.79,1-3,1-4.11,0-2.57-.65-5.54-1.86-6.48A1.22,1.22,0,0,0,1071.55,595.76Zm-38.93,104.86a2.11,2.11,0,0,0-2,.34,6.7,6.7,0,0,0-1.7,4.56c-.19,2.8.63,6.18,2.52,7a2.51,2.51,0,0,0,.5.14,2,2,0,0,0,1.47-.47,6.65,6.65,0,0,0,1.74-4.6C1035.29,704.81,1034.49,701.42,1032.62,700.62Zm-3.27-62.48a1.94,1.94,0,0,1-1.55.46,2.86,2.86,0,0,1-.61-.13,4.3,4.3,0,0,1-1.87-2.25c-3.81,3.31-6.76,5.86-10.81,9.24a10.5,10.5,0,0,1,0,3.64c4.61,5.7,7.44,9.34,12.22,15.62a1.16,1.16,0,0,1-1.06,1.86,1.07,1.07,0,0,1-.76-.46c-4.48-5.9-7.22-9.39-11.34-14.51a3.19,3.19,0,0,1-.68.83,2.19,2.19,0,0,1-1.76.56,1.94,1.94,0,0,1-.58-.12c-1.87-.76-3.18-4-2.95-7.3a6.15,6.15,0,0,1,1.73-4.43,2.25,2.25,0,0,1,2.38-.42,4.45,4.45,0,0,1,2.07,2.31c4-3.31,6.9-5.83,10.84-9.31a10.6,10.6,0,0,1-.14-2.41,6.19,6.19,0,0,1,1.63-4.37,2.49,2.49,0,0,1,.69-.38c0-.13,0-.27,0-.4.47-13.54.94-27.36-.43-41-1.57-1.34-2.59-4.23-2.81-6.61a7.09,7.09,0,0,1,.2-2.79c-2.58-5.42-4.58-9.49-7.26-14.87a2,2,0,0,1-.69,0,2.9,2.9,0,0,1-.79-.24,7.44,7.44,0,0,1-3-3.9c-6.44,1.45-11,2.44-18.23,4.07a7.09,7.09,0,0,1,.13.94,5,5,0,0,1-1,4.15,2.25,2.25,0,0,1-1.89.59,6.34,6.34,0,0,1-.73-.15,6.65,6.65,0,0,1-2.92-3.08c-5.54,3-10.1,5.27-16.06,8.24l-4.28,2.16a10.28,10.28,0,0,1,.15,2,8.91,8.91,0,0,1-.12,1.08c9.23,9.1,14.92,15.06,22.71,23.53a4.31,4.31,0,0,1,.72-.85,2.6,2.6,0,0,1,2.63-.44c2,.8,3.45,4.09,3.29,7.39a6.08,6.08,0,0,1-1.69,4.38,2.55,2.55,0,0,1-1.93.6,3,3,0,0,1-.67-.19,4.59,4.59,0,0,1-2.37-2.47c-4.72,3.61-8.26,6.27-13.27,10a11,11,0,0,1,.18,2.64,6.29,6.29,0,0,1-1.63,4.29c3.83,17.76,7.64,36.14,11.54,55.89a1.89,1.89,0,0,1,.7.13c2.06.7,3.47,3.86,3.18,7.34a6.36,6.36,0,0,1-2,4.54,2.58,2.58,0,0,1-2,.65l-.53-.09a3,3,0,0,1-1-.62c-11.91,22.34-23.75,43.13-36.06,63.24a8,8,0,0,1,.74,4.65c-.42,3.22-2.46,5.39-4.76,5.12l-.43-.09c-1.93-.44-3.28-2.57-3.51-5.16-17.06-1.08-33.83-2.17-50-3.15a6.68,6.68,0,0,1-.8,2.17c1.21,1.72,2.29,3.3,3.38,4.9l2,2.88a3.86,3.86,0,0,1,3.22-.72c2.6.59,4.25,3.75,3.76,7a9,9,0,0,1-.26,1.09c14.68,11.84,30,24.43,46.67,38.41a1.14,1.14,0,0,1,.14,1.62,1.1,1.1,0,0,1-1,.41,1.07,1.07,0,0,1-.6-.27c-16.56-13.83-31.74-26.35-46.29-38.1a4.53,4.53,0,0,1-4,1.81l-.4-.06a5.55,5.55,0,0,1-3.81-4.93l-25.13-.59a6.21,6.21,0,0,1-2,3.56c4.35,12.76,6.94,20.78,10.64,32.74a4.2,4.2,0,0,1,1.73-.06,4.47,4.47,0,0,1,2.8,2,5.88,5.88,0,0,1,.61,4.38,5.74,5.74,0,0,1-4.26,4.29c-1.16,8-2.07,13.36-3.29,20.09a4.3,4.3,0,0,1,2.15,1.76,4.81,4.81,0,0,1,.38,3.91,5.56,5.56,0,0,1-2.31,3.06c2.3,8.91,3.62,14.28,5.74,23a1.15,1.15,0,0,1-.86,1.41,1.25,1.25,0,0,1-.38,0,1.19,1.19,0,0,1-1-.85c-2.11-8.77-3.39-14-5.65-22.72a4.13,4.13,0,0,1-1.16,0l-.34-.05a4.17,4.17,0,0,1-2.63-1.74l-.91.4c-10.76,4.84-17.75,8-28.93,11.6a4.75,4.75,0,0,1-.17,1.64,5.09,5.09,0,0,1-5.49,3.21,5.25,5.25,0,0,1-.69-.13,4.86,4.86,0,0,1-3.09-2.29,4.14,4.14,0,0,1-.31-3.28,4.37,4.37,0,0,1,1.39-2c-7.46-12.07-14.27-23-20.69-33.19a5.32,5.32,0,0,1-2.33.28l-.52-.06a5.14,5.14,0,0,1-.91-.31c-5.11,7-8.39,11.16-14.05,18.06a1.11,1.11,0,0,1-1,.4,1.12,1.12,0,0,1-.76-1.85c5.64-6.89,8.89-11,14-18-.15-.19-.32-.4-.46-.61a5.1,5.1,0,0,1-.65-3.92,5.24,5.24,0,0,1,5.1-4.09c8.86-22.6,17.26-46.33,25.59-72.37-.16-.17-.31-.29-.46-.45C819.47,754,807,765.31,794.85,775.84a5.86,5.86,0,0,1,.53,3.62,5.48,5.48,0,0,1-5.87,4.58l-.38,0a5.37,5.37,0,0,1-3.14-2c-5.91,3.12-10.23,5.34-16.14,8.36a5.43,5.43,0,0,1,.1,2.35,5.31,5.31,0,0,1-5.77,4.37l-.43-.08a5.52,5.52,0,0,1-4.29-6.34,5.6,5.6,0,0,1,2.84-3.89c-1.79-6.9-3.57-13.92-5.34-20.89q-5.55-21.68-11.05-43.37a4.26,4.26,0,0,1-1,0l-.23,0a5.72,5.72,0,0,1-4.33-4L717.52,723c0,.27,0,.52,0,.76-.44,3.37-3.11,5.7-6.06,5.38l-.18,0a5.31,5.31,0,0,1-3-1.61c-16.63,13.48-34,27.16-52.82,41.63A5.55,5.55,0,0,1,656,772a5,5,0,0,1-1.81,3.51,5.24,5.24,0,0,1-3.57,1.05c-2.83,11.9-4.49,19.18-6.74,29.07a5.11,5.11,0,0,1,3,4.72,3.68,3.68,0,0,1-.09.76c4.17,3.57,7.29,6.31,12.29,10.65a1.13,1.13,0,0,1,.12,1.6,1.18,1.18,0,0,1-1,.41,1.23,1.23,0,0,1-.63-.3c-4.86-4.22-7.94-6.88-11.95-10.32-.07.07-.13.14-.2.2a5.15,5.15,0,0,1-3.82,1.09l-.13,0a5.86,5.86,0,0,1-2.92-1.29c-5,3.14-8.63,5.43-13.47,8.44a4.77,4.77,0,0,1,.51,2,3.5,3.5,0,0,1-1.23,2.68,5.06,5.06,0,0,1-3.81,1.09h-.09c-2.77-.4-4.93-2.56-4.91-4.86a3.6,3.6,0,0,1,1.24-2.79,6.78,6.78,0,0,1,.73-.52c-7.26-15.62-14-31.24-20.6-47.27a4.56,4.56,0,0,1-1.17,0h0a5.58,5.58,0,0,1-4.88-5.74,5,5,0,0,1,1.66-3.62,5.52,5.52,0,0,1,1.51-.88c-3-17.18-5.64-34.14-7.94-51.49h-.33a4.55,4.55,0,0,1-2.79-1.34c-1.19,1.07-2.33,2-3.38,3-2.12,1.83-4.14,3.59-6.42,5.58a6.22,6.22,0,0,1,.54,3,6,6,0,0,1-2,4.11,4.93,4.93,0,0,1-3.63,1.2l-.16,0a5.54,5.54,0,0,1-4.62-6.17,6.09,6.09,0,0,1,2-4.15c.07-.05.15-.09.22-.15-3.31-9-5.56-15.45-8.81-25a5.11,5.11,0,0,1-1.26.1l-.25,0c-2.81-.34-4.71-3.05-4.41-6.2a6.45,6.45,0,0,1,1.18-3.18c-2.22-3-4-5.48-6.16-8.42a4.42,4.42,0,0,1-2.86.81,2.5,2.5,0,0,1-.32,0c-2.74-.27-4.6-3-4.27-6.11a7.19,7.19,0,0,1,1.13-3.13c-10.69-14-19.82-26.22-28.23-37.86a5.55,5.55,0,0,1-1.19.66c-.6,12.42-1,24.93-1.26,37.31,2.35.47,3.88,3,3.58,5.94-.35,3.13-2.75,5.71-5.39,5.61l-.34,0c-2.54-.32-4.2-2.91-3.88-6a6.48,6.48,0,0,1,3.74-5.3c.23-12.37.66-24.85,1.24-37.32a3.25,3.25,0,0,1-1.45-.55c-8.58,10.18-14.19,16.93-22.65,27.11a6.25,6.25,0,0,1,.43,3.25c-.4,3.17-2.69,5.66-5.22,5.67l-.41,0a3.59,3.59,0,0,1-2.45-1.46,5.86,5.86,0,0,1-1-4.35,6.77,6.77,0,0,1,.46-1.73c-14.8-12.23-28.57-23.77-41.82-35.08a4.47,4.47,0,0,1-3.09,1.9,2.25,2.25,0,0,1-.58,0,2.92,2.92,0,0,1-.72-.18l-2.62,4.09a6.26,6.26,0,0,1,.3,3.41,7.86,7.86,0,0,1-2.05,4.21c1.93,11.93,3.32,19.8,5.79,32.22a1.58,1.58,0,0,1,.52-.12,3.22,3.22,0,0,1,2.54,1.27,5.36,5.36,0,0,1,1,2.84c8.41-.51,14.26-.77,23.39-1.21.65-2.64,2.64-4.65,4.85-4.62a3.47,3.47,0,0,1,2.8,1.37,6,6,0,0,1,1.05,4.31,7.62,7.62,0,0,1-.67,2.29c7.18,7.68,12.21,12.95,20.56,21.32a4.7,4.7,0,0,1,3.18-1.31c2.62.14,4.52,2.75,4.25,5.92s-2.63,5.5-5.19,5.39l-.34,0a4.47,4.47,0,0,1-.63-.16c-.67,1.33-1.3,2.59-1.93,3.79-2.91,5.76-5.32,10.55-7.91,16.51a6,6,0,0,1,1.75,4.1,5.19,5.19,0,0,1-1.49,3.85,4.1,4.1,0,0,1-3.09,1.15l-.23,0a5,5,0,0,1-3.26-2c-9.15,5-14.76,8.16-22.87,12.7a4.25,4.25,0,0,1,.22,1.2,4.5,4.5,0,0,1-1.27,3.64,3.55,3.55,0,0,1-2.77,1l-.16,0a4.59,4.59,0,0,1-2.86-1.6c-5.26,3.7-8.79,6.16-14.09,9.91l-1.59,1.14a1.28,1.28,0,0,1-.79.17,1.21,1.21,0,0,1-.83-.46,1.23,1.23,0,0,1,.3-1.65l1.59-1.07c5.32-3.77,8.87-6.26,14.22-10a6.3,6.3,0,0,1-.33-1.55,4.75,4.75,0,0,1,1-3.35c-2.29-4.22-4-7.44-6.11-11.48a2.81,2.81,0,0,1-1,.13l-.24,0a4.74,4.74,0,0,1-3.56-2.83c-15.49,4.16-29.79,8-44.17,12a4.73,4.73,0,0,1-1.17,3.65h0c1.43,4.75,2.52,8.16,4.38,13.76a1.15,1.15,0,0,1-.72,1.46,1.27,1.27,0,0,1-.51,0,1.13,1.13,0,0,1-1-.79c-1.86-5.58-2.94-9-4.35-13.71h-.07c-1.89-.19-3.46-2.3-3.62-4.81a5.18,5.18,0,0,1,.56-2.81c-5.86-10.69-9.33-18.13-12.72-30a2,2,0,0,1-.77.13h-.14a2.31,2.31,0,0,1-1.51-.87,5.89,5.89,0,0,1-.77-4.26,7.38,7.38,0,0,1,1.33-3.36c-2.65-16-4.82-32.2-6.44-48.43h0a.91.91,0,0,1-.29,0,1.54,1.54,0,0,1-1.17-.65,5.8,5.8,0,0,1-.52-4.11c.34-2,1.29-4,2.56-4.69,4.79-20,9.79-40.61,15-61.46a.42.42,0,0,1-.16-.12,4.17,4.17,0,0,1-.53-2.81c-9,.93-13.63,1.54-19.34,2.49-.45,1.53-1.2,3.25-2.18,3.63a1,1,0,0,1-.54.07,1.22,1.22,0,0,1-.77-.43c-.62-.86-.39-2.72-.2-3.73a13,13,0,0,1,1.18-3.56l.13-1.07c1.41-11.51,2.85-23.37,4.5-35.21,0,0-.09-.07-.12-.14-.58-.74-.45-2.3-.24-3.42.36-2.09,1.36-4.51,2.52-5.08a1.19,1.19,0,0,1,1.56.3,2.77,2.77,0,0,1,.35,1.31,157.12,157.12,0,0,1,19.85-10c.74-1.92,2.13-4,3.59-4.52a1.48,1.48,0,0,1,1.89.55,3.69,3.69,0,0,1,.13,2.81c6.72-.24,11.75-.36,20.64-.41a12.29,12.29,0,0,1,1.77-2.27l.09-.88c.51-4.71.89-8.24,1.34-12.71a1.92,1.92,0,0,1-.59,0,1.78,1.78,0,0,1-1.21-.73,4.47,4.47,0,0,1,.12-3.49c.92-2.44,2.94-4.77,4.65-5.28a1.78,1.78,0,0,1,2.22.66,3.89,3.89,0,0,1-.14,3.37,11.07,11.07,0,0,1-2.56,3.94c-.54,5-.91,8.78-1.45,13.65a1.77,1.77,0,0,1,1.74.68c8.53-6.77,14.69-11.39,24.56-18.44a6.08,6.08,0,0,1,.28-.92,10.08,10.08,0,0,1,2-3.11c-1.31-5.26-2.29-9.32-3.26-13.38-.91-3.77-1.82-7.55-3-12.32a1.1,1.1,0,0,1,.81-1.39,1.13,1.13,0,0,1,1.41.83c1.15,4.8,2.08,8.6,3,12.31s1.81,7.54,3,12.27a6.47,6.47,0,0,1,1.32-.62,2.17,2.17,0,0,1,2.23.57c8.42-6.44,14.37-10.82,24-17.67a5.67,5.67,0,0,1,.34-1.14,10.21,10.21,0,0,1,3.92-4.62c1.33-4.91,2.33-8.49,3.67-13.1l-.09,0a2,2,0,0,1-1.52-1,3.55,3.55,0,0,1,.18-3.12,10.65,10.65,0,0,1,3.1-3.84c.74-9.21,1.28-15,2.1-23.43a5.55,5.55,0,0,1-1.14,0,1.68,1.68,0,0,1-1.43-.88,3.05,3.05,0,0,1,.26-2.87,9.15,9.15,0,0,1,5.46-4.62,2.38,2.38,0,0,1,2.15.31c9.3-6.18,15.58-10.07,24.89-15.51a6.07,6.07,0,0,1,.38-.85,8.92,8.92,0,0,1,5.61-4.11,2,2,0,0,1,2.84,2.31c18.12-1.19,35.26-2.15,52.17-2.9a9,9,0,0,1,3.33-2.3,149.38,149.38,0,0,1,7.17-16.59,1.93,1.93,0,0,1-1.56-1,1.81,1.81,0,0,1,.35-1.94,8.78,8.78,0,0,1,5.56-2.9,3.87,3.87,0,0,1,1.18,0,2.12,2.12,0,0,1,1.52.79c18.34-4,36.34-7.46,54.76-10.3A8.87,8.87,0,0,1,649,358c1.79,0,2.75.35,3.07,1.14a1.26,1.26,0,0,1-.32,1.31,1,1,0,0,1-.36.28c3.06,1.91,5.64,3.63,9.53,6.49a8,8,0,0,1,2.27-.32,4.34,4.34,0,0,1,2.81.77c5.19-1,8.93-1.67,14-2.49.79-1.27,3-1.94,5-1.92,1.6,0,2.83.51,3.31,1.33a1.77,1.77,0,0,1,0,1.41,3.19,3.19,0,0,1-1.51,1.4,205.1,205.1,0,0,1,13.63,21.48,5.21,5.21,0,0,1,1.41-.15,4.24,4.24,0,0,1,3.43,1.59,2.79,2.79,0,0,1,.51,2.17c12.35,3.6,20.46,6.12,34.14,10.79a5.11,5.11,0,0,1,4.16-1.57,4.84,4.84,0,0,1,3.56,1.88c13.57-3.35,21.56-5.16,33.48-7.65,0-.06,0-.11,0-.16a3,3,0,0,1,1.05-2.3,4.66,4.66,0,0,1,3.57-1.05h0a4.14,4.14,0,0,1,1.66.48c7.19-7,11-10.39,17.16-15.63a1.06,1.06,0,0,1,1.6.08,1.14,1.14,0,0,1-.13,1.62c-6,5.19-9.77,8.56-16.73,15.28a3.46,3.46,0,0,1,1,2.28,1,1,0,0,1,0,.32c9.14,4,15.46,6.89,25.45,11.82a.52.52,0,0,0,.08-.11,4.18,4.18,0,0,1,3.36-.95,5.66,5.66,0,0,1,4.43,3.09c13.74.27,22.29.59,36.15,1.34-.07-.23-.15-.51-.21-.77a3.21,3.21,0,0,1,.4-2.15c-4-4.16-6.82-7-11.55-11.43a1.09,1.09,0,0,1-.06-1.58,1.12,1.12,0,0,1,1.63,0c4.88,4.55,7.75,7.37,11.87,11.71a4.62,4.62,0,0,1,1.79-.05,6.37,6.37,0,0,1,4.67,3.8c1.79-.32,3.42-.65,5.18-.94a1.21,1.21,0,0,1-.05-.14,2.92,2.92,0,0,1,.67-2.68,3.39,3.39,0,0,1,3.19-.88,6.5,6.5,0,0,1,4.57,4.15c14.36,4.52,29,9.54,43.62,15a2.81,2.81,0,0,1,.48-1,214.3,214.3,0,0,0-13.76-20.24,1.16,1.16,0,0,1,1.86-1.4,223.94,223.94,0,0,1,14.11,20.82,2.35,2.35,0,0,1,.76.16,7.85,7.85,0,0,1,4.66,5.37,3.21,3.21,0,0,1-.56,3,1.18,1.18,0,0,1-.28.23c2.77,6.11,4.77,10.86,7.57,18.06a1.33,1.33,0,0,1,.19,0,6,6,0,0,1,2.2,1.51l12.9-13.1a8.14,8.14,0,0,1-.94-2.34,3.07,3.07,0,0,1,.5-3,2.2,2.2,0,0,1,2.1-.66c-.15-4.86-.32-8.44-.58-13.19a8.34,8.34,0,0,1-3-4.1,3,3,0,0,1,.36-2.71,2.45,2.45,0,0,1,2.78-.53,7.72,7.72,0,0,1,4.67,5,4.26,4.26,0,0,1,.15,1,431.75,431.75,0,0,1,42.45,40.95c-5-11.19-8.63-18.49-15.33-30.52a1.11,1.11,0,0,1,.47-1.55,1.16,1.16,0,0,1,1.55.41,345.67,345.67,0,0,1,16.31,32.81,3.06,3.06,0,0,1,.56.14c1.85.86,3.63,3.55,4.06,6.18a5.78,5.78,0,0,1,.08.74c3.56,3.42,6.2,6.05,9.47,9.42,0,0,0-.07.08-.11a2.13,2.13,0,0,1,2.47-.34c1.67.84,3.28,3.52,3.75,6.1,5.45,3.86,9,6.49,13.71,10.07a2.37,2.37,0,0,1,.62-1.06,1.77,1.77,0,0,1,2.32-.24c1.66.84,3.12,3.74,3.43,6.48.12,1.67-.18,3-.91,3.62a1.67,1.67,0,0,1-1.43.53,2.13,2.13,0,0,1-.4-.1c-1.14,10-1.83,17-2.86,27.63a12,12,0,0,1,1.63,4.94,8.53,8.53,0,0,1-.07,2.19c8.55,16.85,16.27,33.7,23.51,51.43a1.17,1.17,0,0,1-.65,1.5,1.28,1.28,0,0,1-.55.06,1.16,1.16,0,0,1-1-.68c-7-17.29-14.56-33.79-22.88-50.2a1.74,1.74,0,0,1-.65.07,1.93,1.93,0,0,1-.8-.3,5.61,5.61,0,0,1-2-2.29c-1.55,1.33-3.05,2.57-4.44,3.72-5.11,4.31-9.61,8.08-16.36,13.6a9.4,9.4,0,0,1,.48,2.26,7.37,7.37,0,0,1-.17,2.71c2.74,5.44,4.75,9.6,7.26,14.88a1.88,1.88,0,0,1,1.35.21c1.68.86,3.21,3.91,3.46,7,.21,1.92-.17,3.41-1,4.2a2,2,0,0,1-.52.35c1.29,13.58.81,27.29.37,40.64,0,.31,0,.62,0,.87a7.67,7.67,0,0,1,1.83,4.39c8.5.42,13.19.64,20.82,1.08a1.12,1.12,0,0,1,1.1,1.17,1.17,1.17,0,0,1-1.21,1.14c-7.58-.43-12.26-.68-20.64-1.11C1030.83,635.79,1030.3,637.34,1029.35,638.14ZM1027,486.71c4.69,13.21,9,26.87,13,40.75,1-9.89,1.66-16.74,2.81-27a11,11,0,0,1-1.63-4.54c-4.91-3.79-8.49-6.43-13.68-10.13A3,3,0,0,1,1027,486.71Zm-17.24-15.47c.33,3.32.64,6.6.93,10,3.27-.08,6.64-.17,10-.24l0-.18c0-.26,0-.5-.06-.75-3.41-3.54-6-6.15-9.47-9.49,0,0,0,.08-.07.11A1.76,1.76,0,0,1,1009.71,471.24ZM959,421.33c.27,4.48.4,8.12.55,13.21a8.91,8.91,0,0,1,2.85,4.63,3.44,3.44,0,0,1-.51,3.09,3,3,0,0,1-.71.46c4,12.7,6.39,21.52,9.89,35.88a8.11,8.11,0,0,1,3.13,3.69c10.86-.4,22.11-.78,34.1-1.06-.32-3.71-.68-7.41-1-11.09a9.88,9.88,0,0,1-2.88-5.31,6,6,0,0,1-.09-1.25A424,424,0,0,0,960.66,421a2.57,2.57,0,0,1-1.58.31Zm-19.24,38.55c-5.07,7.87-8.56,13.25-14.41,21.92A6,6,0,0,1,926,483c13.37-.46,27.17-.66,41.21-.55v-.05a4.1,4.1,0,0,1,.74-3.56,2.54,2.54,0,0,1,.71-.48c-3.44-14.14-5.82-22.94-9.93-35.83a5.48,5.48,0,0,1-1.73-1.23L944.06,454.4A8,8,0,0,1,945,457a4,4,0,0,1-.75,3.39,2.29,2.29,0,0,1-2,.66,2.94,2.94,0,0,1-.8-.17A5.32,5.32,0,0,1,939.78,459.88Zm-40,230.55a7.17,7.17,0,0,1,1.38-3.66c-7.55-17.45-15.07-34.63-22.52-51.22h0c1.61,23.29,2.94,47,4,70.58a4.93,4.93,0,0,1,1.14.06,4.86,4.86,0,0,1,1.88,1.08c5.25-4.67,9.15-8.27,14.41-13.21A9.87,9.87,0,0,1,899.82,690.43Zm-287.12,31a4.83,4.83,0,0,1,2.68,1.15c6.64-7.9,11.37-13.58,18-21.58a6.43,6.43,0,0,1-.69-1.62c-13.91,1.69-27.65,3.48-41,5.32a5.8,5.8,0,0,1-.61,2.24c6.36,5.66,11,9.76,17.55,15.88A5.12,5.12,0,0,1,612.7,721.45ZM478.92,547.8c13.5,1.86,22.43,3.28,36.79,5.81a8,8,0,0,1,1.41-2.06c-5.33-15.26-10.77-31.4-15.54-48.18a5.92,5.92,0,0,1-1.53.53,3.2,3.2,0,0,1-1,0,2.61,2.61,0,0,1-1.93-1.19,3.25,3.25,0,0,1-.38-1.11c-5.21,1.9-9,3.35-14,5.28v0c-.94,2.72-3.48,5.19-5.75,5.51a2.79,2.79,0,0,1-.95,0,3.47,3.47,0,0,1-.77-.2c-4.06,4.32-7.93,8.77-11.63,13.17,1.65,3.4,3.43,6.6,5.41,10.24,1.32,2.42,2.77,5,4.33,8a5.36,5.36,0,0,1,2-.88,3,3,0,0,1,2.86,1.19A5.16,5.16,0,0,1,478.92,547.8ZM506,498c21.11,2.45,43.07,5.87,65.38,10.23a10.52,10.52,0,0,1,.65-1c-8.28-11.44-16.77-23.2-25.12-34.94a6.14,6.14,0,0,1-2.71,1.15,5.62,5.62,0,0,1-1,0,2.93,2.93,0,0,1-2.08-1.24,3.63,3.63,0,0,1-.18-.43c-5.66,2.68-9.89,4.72-15.52,7.48,0,.2-.1.47-.17.68-.9,2.72-3.51,5.15-5.94,5.52a3.51,3.51,0,0,1-1,0,2.89,2.89,0,0,1-1-.34c-4,3.82-7.15,6.79-11.15,10.63A5.12,5.12,0,0,1,506,498Zm5.63-10.73c-8,5.07-15.91,10.12-23.55,15.12,2.78-1,5.53-2.08,8.94-3.31,0,0,0,0,0,0,.91-2.73,3.48-5.18,5.83-5.54a2.86,2.86,0,0,1,2,.31C507.28,491.42,509.41,489.42,511.63,487.28Zm29.58-19.4c-12.65-4.81-20.06-7.43-31.54-11.24a8.18,8.18,0,0,1-3.93,2.59c-8,14.61-15.93,29.2-23.52,43.5a5.76,5.76,0,0,1,.42.45c10.68-7,21.86-14.13,33.31-21.27a6.93,6.93,0,0,1,.28-1.27c.91-2.68,3.51-5.13,5.89-5.45a2.89,2.89,0,0,1,3,1.14c.08.12.11.3.17.41,5.45-2.68,9.74-4.73,15.49-7.44a3.09,3.09,0,0,1,.16-.68A7,7,0,0,1,541.21,467.88Zm-22.14,82.29a4.81,4.81,0,0,1,1.58-.45,3.32,3.32,0,0,1,2.87,1.19l47.05-38.08a5.86,5.86,0,0,1,0-2.4c-22.39-4.38-44.39-7.77-65.56-10.17a9.78,9.78,0,0,1-1.39,1.68C508.32,518.72,513.74,534.88,519.07,550.17Zm9.17-.12c16.62-8.06,25.36-12.16,30-14.21a6,6,0,0,1,.11-.81c.69-3.17,3.34-5.75,6.1-5.85a2.79,2.79,0,0,1,.5,0l6.94-14.13-.22-.16Zm37.14-10.3c.1.66.21,1.28.32,1.92,1.95,12,4.51,27.54,7.88,41.3-.11-24.1.12-46.15.74-67.06h-.24L567.15,530a5.1,5.1,0,0,1,.64.67,5.38,5.38,0,0,1,.72,4.19A7.74,7.74,0,0,1,565.38,539.75ZM573.47,598a4.31,4.31,0,0,1-2.91-1.7,6.47,6.47,0,0,1-.61-1.09c-17.28,7.24-35.72,15.51-56,25.14a6,6,0,0,1-.05,1v0c18.73,4.83,38.09,10,58.85,15.76a6.5,6.5,0,0,1,3.1-3.13c-.75-11.64-1.41-23.7-1.94-36Zm3.2-93.49a3.75,3.75,0,0,1,3.32,1.53,4.74,4.74,0,0,1,.81,2.76c12.84-.6,25.91-.95,38.9-1.06a7.17,7.17,0,0,1,4.57-4.53c1.75-12.17,3-19.81,5.05-31.22a3.78,3.78,0,0,1-2.37-1.54,4,4,0,0,1-.73-2.52c-26.86-.54-52.05-.12-76.64,1.31a13.39,13.39,0,0,1-.94,1.42c8.29,11.74,16.79,23.5,25.08,35A5.75,5.75,0,0,1,576.67,504.52Zm29.46-67.63a5.74,5.74,0,0,1-1,2.3L629,462.88a5.76,5.76,0,0,1,3.37-1.2l23-54a1.92,1.92,0,0,1-.41-.19l-48.77,27.64A5.35,5.35,0,0,1,606.13,436.89Zm29.2,23.69C658.58,434,678,413.34,697.1,394.72l-34.36,9.59c0,.11,0,.24,0,.36-.43,1.89-2.6,3.39-5,3.47ZM603.5,440.82a6.2,6.2,0,0,1-3.41,1.25,5.59,5.59,0,0,1-.62,0,4,4,0,0,1-2.65-1.48l-46.44,26.32c24.48-1.39,49.59-1.82,76.36-1.24a7.43,7.43,0,0,1,.64-1.14Zm-27.6,145a4.18,4.18,0,0,1,2.4.88c16.77-16.89,32.07-32.18,46.46-46.36a5.92,5.92,0,0,1-.35-3.44,7.2,7.2,0,0,1,3.18-4.93c-1.19-6.55-2.07-11.4-3.1-17.42a5.63,5.63,0,0,1-.76.08,5.49,5.49,0,0,1-.58,0,4.35,4.35,0,0,1-2.9-1.66,5.42,5.42,0,0,1-.91-2.92c-13.05.09-26.11.47-39,1.06a7.84,7.84,0,0,1-3.76,4.24C576,537.25,575.76,560.45,575.9,585.86Zm54-76.92a7.27,7.27,0,0,1-3.22,4.77c1.08,6.14,1.93,11,3.12,17.47a4.07,4.07,0,0,1,.79-.09,4.42,4.42,0,0,1,2.14.64c15.4-18.37,30.16-35.55,44.88-52.26C660.73,488.88,645,497.91,629.91,507A7.21,7.21,0,0,1,629.89,508.94Zm329,64.16c0-.18,0-.34.06-.55-24.77-20.24-50.27-39.22-77.69-57.76,0,0,0,.1-.08.14,15.42,25.31,30.16,51.55,44.85,79.93a3.3,3.3,0,0,1,2.38-.2,5.38,5.38,0,0,1,2.79,2.45l28-21.18A9.28,9.28,0,0,1,958.86,573.1ZM880,517.49l13.24,56a4.84,4.84,0,0,1,.85.14c2.41.72,4.17,4,4,7.52,0,.08,0,.16,0,.21l25.88,15.93a1.81,1.81,0,0,1,.37-.63C909.8,568.57,895.22,542.58,880,517.49Zm-83.54,62.78a3.55,3.55,0,0,1-.13.65c26,14.11,51.69,28.94,76.45,44.27a6.64,6.64,0,0,1,1.11-1.51c-9.58-27.52-19.55-54.72-29.63-81.08a5.15,5.15,0,0,1-1.18,0l-.35,0a5.34,5.34,0,0,1-3-1.92c-13.89,11.57-28.29,23.5-43.76,36.22A7.25,7.25,0,0,1,796.48,580.27ZM876,622.61a3.73,3.73,0,0,1,1.69,0l.3.09,12.82-38.13a9.27,9.27,0,0,1-1.71-5.89,6.85,6.85,0,0,1,.15-1L846.83,541.1c-.13.15-.3.29-.47.47C856.44,567.87,866.38,595.11,876,622.61Zm4,1.43a5.45,5.45,0,0,1,1.12,1.52c13.65-7.5,28-15.42,42.43-23.46a9.22,9.22,0,0,1-.17-2.26c0-.09,0-.16,0-.26l-25.89-15.9a4.73,4.73,0,0,1-1.35,2,3.15,3.15,0,0,1-2.49.75,6,6,0,0,1-.6-.14,2.92,2.92,0,0,1-.34-.13Zm-2.54-107.4c-.13,0-.26,0-.4,0a5.84,5.84,0,0,1-3-2.09c-6.54,5-11.6,8.78-17.73,13.4-2.63,2-5.45,4.06-8.61,6.48a7.45,7.45,0,0,1,.46,3,6.38,6.38,0,0,1-.26,1.61l42.14,36.41a4.47,4.47,0,0,1,.91-1.11l.07,0Zm-4.52-4.2a6.92,6.92,0,0,1-.56-2.64c-17.4-7.54-34.68-14.59-52.51-21.33a5.3,5.3,0,0,1-.79,1.2c7.88,13.65,15.25,27.47,22.22,40.71a4.13,4.13,0,0,1,2.26-.13,5.19,5.19,0,0,1,3.08,2c3-2.29,5.77-4.31,8.32-6.25C861.14,521.42,866.28,517.55,872.94,512.44Zm-55.79-21.5a3.88,3.88,0,0,1-1.85.2l-.12,0C808,520.2,801,547.41,793.85,573.9a5,5,0,0,1,1,1c15.49-12.76,29.88-24.66,43.75-36.2a7.66,7.66,0,0,1-.54-3.23,6.33,6.33,0,0,1,1.36-3.68C832.44,518.48,825.05,504.62,817.15,490.94Zm-4.12-.72a6.42,6.42,0,0,1-2.58-3.94l-32.16-2.49c4.51,26.92,8.8,56,13.18,89.17h.23C798.86,546.49,805.9,519.31,813,490.22ZM685.54,545.67a6.44,6.44,0,0,1-.77,2.36c24.2,21.77,48.76,44.9,73.19,68.9.14-.11.29-.31.45-.44a3.44,3.44,0,0,1,.38-.22c-9.08-35.3-17.73-68.12-26.34-100a6.94,6.94,0,0,1-1.12,0h-.08a4.93,4.93,0,0,1-3.26-1.87c-14.16,9.47-28.4,19.1-42.55,28.81A6.09,6.09,0,0,1,685.54,545.67Zm45.78-41.27a6.79,6.79,0,0,1,1.36-.06h0a4.31,4.31,0,0,1,1.47.4c5-7.87,9.94-15.68,14.75-23.24l-25.7-2Zm29.64,111a4.1,4.1,0,0,1,1,0l.17,0a5.07,5.07,0,0,1,1.93.76c7.45-10.53,15-21.35,22.85-32.76a7.64,7.64,0,0,1-.3-7.69c-17.26-20.92-34.66-41.24-51.79-60.59-.1.08-.18.18-.26.24C743.21,547.33,751.87,580.16,761,615.43ZM788.14,574a5.44,5.44,0,0,1,1.05-.58c-4.4-33.39-8.73-62.7-13.26-89.81l-24.44-1.86c-5,7.9-10.23,16.12-15.49,24.44a6.13,6.13,0,0,1,1.31,4.65,7.32,7.32,0,0,1-.9,2.69C753.53,532.76,770.88,553.05,788.14,574Zm22.5-91c-12-10.4-24.17-20.48-36.41-29.92a6.09,6.09,0,0,1-1.23.74c1.68,9,3.29,18.19,4.89,27.67L810.4,484A5.32,5.32,0,0,1,810.64,483Zm-39.9-28.85a.48.48,0,0,0-.12,0h0a6.21,6.21,0,0,1-1.27-.3c-5,7.77-10.54,16.45-16.4,25.7l22.63,1.76C774,472,772.36,463,770.74,454.1Zm-3.33-1.64a6.07,6.07,0,0,1-.77-1q-24.18,6.62-48.09,13.88l3.86,11.83,27.89,2.16ZM766,449.17c-17.7-3.59-35.6-6.93-53.37-9.93a5.43,5.43,0,0,1-1.9,2l7.12,21.91c15.94-4.86,32-9.43,48.15-13.92ZM716.34,466c-9.22,2.8-18.4,5.64-27.46,8.58L720,476.91Zm-28.57,10.77a3.17,3.17,0,0,0-.17.41l40.66,29a4.73,4.73,0,0,1,1-.84l-8.49-26ZM686.21,479a6.68,6.68,0,0,1-2.37,1.38c-.87,18.66-1.63,38-2.32,58.78a4.73,4.73,0,0,1,2.89,1.78l.07.11c14.12-9.63,28.35-19.33,42.43-28.75a6.7,6.7,0,0,1-.22-2.59,7.44,7.44,0,0,1,.38-1.58Zm-5,72.2c-.6,19.39-1.16,40.23-1.7,63.15a5.07,5.07,0,0,1,2.95,1.84,6.56,6.56,0,0,1,1.25,3.28c24.31,0,48.62.34,72.44,1.11a8.54,8.54,0,0,1,.52-1.72c-24.44-24-49-47.24-73.26-69A5.88,5.88,0,0,1,681.17,551.23Zm.32-70.66a3.76,3.76,0,0,1-1.37-.46c-15,17-30,34.52-45.77,53.26a5.6,5.6,0,0,1,.68,3.46l40.05,6.61a6.46,6.46,0,0,1,4.17-4.1C679.92,518.52,680.67,499.22,681.49,480.57Zm1.8,184.05a5.35,5.35,0,0,1,.19-.92q-11.72-3-23.48-5.72c-.85,1.55-1.64,3.12-2.47,4.7L641.7,693a6.31,6.31,0,0,1,1.23,1.77q9.23-6.29,18.53-12.47,11-7.41,22.06-14.86A7.55,7.55,0,0,1,683.29,664.62Zm-9.15-38.79q-14.43,13.23-28.93,26.38c4.52,1,9,2.06,13.56,3.11Q666.45,640.59,674.14,625.83ZM627.5,598.42l-3.92,3.36Q606.43,616.41,589.27,631c16.9-10.36,34.07-20.66,51.35-30.95-1.7-1-3.42-2-5.12-2.87a5.77,5.77,0,0,1-4.91,2.62l-.29,0A4.83,4.83,0,0,1,627.5,598.42ZM630,587.71c-.52-14.87-.95-29.81-1.32-44.52l-.36,0a4.75,4.75,0,0,1-2.18-.93c-14.4,14.19-29.71,29.45-46.47,46.43a6,6,0,0,1,.45,2.2c15.44.15,30.9.62,46.1,1.35A6.93,6.93,0,0,1,630,587.71Zm1.13-45.1-.15.06c.35,14.78.8,29.74,1.34,44.67a4.64,4.64,0,0,1,3.37,1.82,6.41,6.41,0,0,1,1.1,4.73,8.6,8.6,0,0,1-.27,1.28c2.11,1.17,4.24,2.33,6.38,3.54,2.82-1.72,5.65-3.36,8.47-5a6.31,6.31,0,0,1-.07-2.25,7.52,7.52,0,0,1,2-4.09l-3.92-8Q640.19,561,631.15,542.61Zm20.28,35.78,3.73,7.62a5.12,5.12,0,0,1,2.4-.49l.27,0a4.43,4.43,0,0,1,.72.17l17.9-35.55a3.71,3.71,0,0,1-.55-.57,6.12,6.12,0,0,1-1.23-3.9L634.47,539a7.35,7.35,0,0,1-1.42,2.17Q642.17,559.84,651.43,578.39Zm-67.83,58.8c29.47-6.1,59.37-11.7,89.1-16.75,0-.11,0-.2,0-.31a6.71,6.71,0,0,1,.24-1.26c-10.08-6.06-20.11-11.91-30-17.49C622.93,613.29,603.07,625.28,583.6,637.19Zm90.26-20.5c-5.55-7.45-9.3-12.53-14.54-19.53a5.24,5.24,0,0,1-3.36,1h-.21a4.7,4.7,0,0,1-3.25-1.84,2.76,2.76,0,0,1-.26-.41c-2.35,1.37-4.67,2.78-7,4.16C654.68,605.37,664.23,611,673.86,616.69Zm1.73-1.49a5.2,5.2,0,0,1,1.58-.71c.51-22.91,1.06-43.74,1.66-63.11a1.89,1.89,0,0,1-.34-.09l-18,35.6a4.05,4.05,0,0,1,.49.53,6.38,6.38,0,0,1,1.22,4.87,7,7,0,0,1-1.29,3.2C666.29,602.61,670.06,607.69,675.59,615.2Zm-99.4-17.7c.52,12.3,1.17,24.34,1.95,36a4.51,4.51,0,0,1,3,1.41q20.48-17.48,40.91-34.9l4.23-3.61a5.75,5.75,0,0,1-.38-1.92c-15.2-.71-30.67-1.17-46.13-1.38A7.18,7.18,0,0,1,576.19,597.5Zm7.21,42.1q29.46,5.43,59.06,12l.26-.2q15.24-13.85,30.47-27.74a3.75,3.75,0,0,1-.37-.94C643,627.78,613,633.47,583.4,639.6Zm7.8,61.86a5.43,5.43,0,0,1,.35.92c13.37-1.79,27.12-3.57,41-5.32V697c.37-3.32,3.08-5.8,6.06-5.52a10.63,10.63,0,0,1,1.13.24l15.75-30.1c.71-1.44,1.44-2.84,2.17-4.2-4.83-1.11-9.69-2.22-14.54-3.3Zm25.66,23a6.34,6.34,0,0,1,.68,2.7c11.55,1.62,19.32,2.85,31.34,4.94a5.91,5.91,0,0,1,1.62-2.58c-4.47-9.43-7.51-15.94-12-25.81a3.61,3.61,0,0,1-1.09,0h-.07a5,5,0,0,1-2.3-.9Zm35.64,3.9a4.69,4.69,0,0,1,2-.2,5.37,5.37,0,0,1,1.05.26c9.06-17.77,18.75-36.95,29.49-58.26-.2-.2-.36-.42-.51-.59q-10.92,7.32-21.83,14.61-9.65,6.51-19.27,13a6.59,6.59,0,0,1,0,1.09,6.24,6.24,0,0,1-2.84,4.72C645.08,712.57,648.11,719,652.5,728.34Zm37-69.43a5.5,5.5,0,0,1,4.18,3.15c11-1.52,18.25-2.5,28.81-3.76a2.08,2.08,0,0,1,0-.25,9.83,9.83,0,0,1,.42-1.72c-13.7-10.72-27.4-21.26-40.93-31.36a5.42,5.42,0,0,1-4.6,2h-.1a3.33,3.33,0,0,1-1-.22c-5.07,9.65-10.13,19.39-15.19,29.08,7.79,1.84,15.59,3.73,23.35,5.71A5.45,5.45,0,0,1,689.53,658.91Zm34.6-4.58a3.51,3.51,0,0,1,.47-.55,5.21,5.21,0,0,1,4.08-1.47,5.72,5.72,0,0,1,2.6,1.2c7.9-8.58,16.18-17.74,25.51-28.09A7.58,7.58,0,0,1,756,623c-23.84-.8-48.16-1.2-72.48-1.17a10.81,10.81,0,0,1-.34,1.2C696.68,633.12,710.41,643.62,724.13,654.33Zm8.59,1a6,6,0,0,1,.78,2.61c23.67,1.19,47.79,2.81,71.88,4.81a6.7,6.7,0,0,1,.34-1.16c-14-12.35-27.39-23.89-40.52-34.94a4.23,4.23,0,0,1-.73.74,4.75,4.75,0,0,1-3.59,1l-.19,0a4.4,4.4,0,0,1-2.46-1.18C748.92,637.6,740.64,646.72,732.72,655.34Zm74.17,4.2c.23-.24.46-.49.73-.75.15-.1.33-.17.5-.28-5.27-23.78-10.83-48.13-16.61-72.62a6.59,6.59,0,0,1-.77,0l-.23,0a5.06,5.06,0,0,1-1.86-.75c-7.9,11.42-15.45,22.2-22.91,32.74a7.45,7.45,0,0,1,1.15,4.91,6.62,6.62,0,0,1-.49,1.86C779.54,635.71,792.86,647.21,806.89,659.54Zm3.46-1.74a4,4,0,0,1,1,.07,5.42,5.42,0,0,1,3.66,2.87c19.34-10.16,38.52-20.32,57.14-30.26A8.73,8.73,0,0,1,872,628c0-.23.08-.39.11-.59-24.81-15.35-50.5-30.21-76.52-44.33a6.07,6.07,0,0,1-1.39,1.72,3,3,0,0,1-.5.32C799.5,609.67,805.07,634,810.35,657.8Zm5.58,7.55a8.85,8.85,0,0,1-.2,1c21.1,13.68,42,27.92,63,42.91a5.37,5.37,0,0,1,1.64-2.14c-1.1-23.86-2.46-47.84-4.08-71.46a5.67,5.67,0,0,1-3.39-3c-18.61,10-37.77,20.1-57.12,30.25A7.9,7.9,0,0,1,815.93,665.35ZM903,685.27a3.9,3.9,0,0,1,2-.22l20.41-79a8.38,8.38,0,0,1-1.12-1.67c-14.4,8-28.75,15.93-42.4,23.41a8,8,0,0,1,.17,2.48,7.1,7.1,0,0,1-1.49,3.9C888,650.75,895.56,667.88,903,685.27Zm4.05.88a6.42,6.42,0,0,1,1.76,3l1.18-.23c15.19-3.93,30.89-7.94,46.34-12.07a8.68,8.68,0,0,1,0-1,7.08,7.08,0,0,1,1.08-3.39c-8.7-21.1-17.92-42.55-28-65.15a3.08,3.08,0,0,1-1.46.21,2.16,2.16,0,0,1-.53-.12Zm52.18-15.39a2.88,2.88,0,0,1,1.54-.2c3.45-15.47,6.66-30.84,9.69-45.4a8.8,8.8,0,0,1-1.86-5.47l-36.59-15.63a6.78,6.78,0,0,1-.77,1.75C941.37,628.38,950.58,649.74,959.27,670.76Zm11.15-56.29c-2.58-13-4.36-21.46-7.11-33.72h0a3.11,3.11,0,0,1-.69-.16,5.25,5.25,0,0,1-2.57-2.43l-28,21.18a8.64,8.64,0,0,1,.32,2.37l36.49,15.56A5.37,5.37,0,0,1,970.42,614.47ZM960,569.41c-9.63-26.19-21.53-51.16-36.11-79.53h-.65a3.79,3.79,0,0,1-.73-.17,6.32,6.32,0,0,1-3-2.49c-12.5,7.26-25.19,14.66-37.85,22.16a8.49,8.49,0,0,1,.36,2.28,5.52,5.52,0,0,1-.08.8c27.4,18.54,52.88,37.48,77.61,57.64C959.72,569.88,959.87,569.63,960,569.41Zm-74-154.6c19.26,12.37,37.1,25.78,51.44,36.89.06,0,.09-.09.15-.16a1.25,1.25,0,0,1,.31-.23c-2.76-7.09-4.77-11.83-7.57-18.07l-.24,0a7.81,7.81,0,0,1-4.39-4.65C912.41,423.6,899.1,419,886,414.81Zm-7.38,90.53a6.39,6.39,0,0,1,2,1.89c12.68-7.4,25.34-14.81,37.82-22.08a8.25,8.25,0,0,1-.46-2,4.46,4.46,0,0,1,1.06-3.68,2.91,2.91,0,0,1,3-.56,4.92,4.92,0,0,1,1.74,1.07c5.73-8.52,9.19-13.84,14.33-21.83a9,9,0,0,1-1.33-3.29c0-.27,0-.46,0-.66-15.31-11.89-34.65-26.44-55.52-39.61a3.18,3.18,0,0,1-2.09.68C881.08,447.43,880.08,478.5,878.65,505.34ZM823,414.9c19.18,26.83,35.13,55.66,52.5,89.91a3.07,3.07,0,0,1,.82-.14c1.39-26.83,2.41-57.88.51-90a7.31,7.31,0,0,1-2.36-1.91c-2.11.39-4,.69-6.09,1.12a2.69,2.69,0,0,1-.69,1.27,3.48,3.48,0,0,1-3,.95l-.27,0a6.22,6.22,0,0,1-3.1-1.6C846.62,413.62,838,413.36,824,413A3.35,3.35,0,0,1,823,414.9Zm-6.12,65.49a6.39,6.39,0,0,1,3.5,5.79c17.74,6.77,35,13.8,52.34,21.31a5.36,5.36,0,0,1,.85-1.42C856.17,471.69,840.21,442.84,821,416a4.78,4.78,0,0,1-.53.06C820,437.88,818.52,459.65,816.92,480.39ZM775.46,447a5.33,5.33,0,0,1,.52,2.52,5.06,5.06,0,0,1-.4,1.64c12.21,9.44,24.39,19.45,36.36,29.84l.08-.1a4.57,4.57,0,0,1,2.62-1c1.61-20.68,3.07-42.54,3.5-64.27A3.94,3.94,0,0,1,817,415C804,424.9,790.32,435.41,775.46,447Zm-2.07-2.28.64.4c14.81-11.51,28.41-22,41.37-31.79a4.44,4.44,0,0,1-.67-2.08,2.79,2.79,0,0,1,0-.5c-10-5-16.32-7.86-25.51-11.84a4.46,4.46,0,0,1-3.4,1.07C782.13,413.65,778,428.41,773.39,444.74ZM747,408.67c7.53,11.21,15,23.1,22.42,35.54a4,4,0,0,1,1.71-.19c4.65-16.27,8.74-31,12.45-44.62a5.57,5.57,0,0,1-1.6-1.28c-12.06,2.51-20,4.34-33.61,7.64,0,.16,0,.26,0,.38A3.9,3.9,0,0,1,747,408.67Zm-34.4,26a4.64,4.64,0,0,1,.58,2.29c17.69,3,35.52,6.33,53.14,9.94a6.11,6.11,0,0,1,1.1-1.62C760.08,432.89,752.55,421,745,409.76a5.67,5.67,0,0,1-1.72.14l-.27,0a6,6,0,0,1-1.76-.51C731.16,417.88,724.38,423.91,712.64,434.7Zm-27.52,35.46a4.74,4.74,0,0,1,2.13,1.53,3.92,3.92,0,0,1,.48.82q13.85-4.42,27.89-8.75l-7.07-21.68a4.63,4.63,0,0,1-1,.06l-.37,0a4.74,4.74,0,0,1-3.14-1.77,4.66,4.66,0,0,1-.83-3.39,5.55,5.55,0,0,1,5.69-4.46,5.08,5.08,0,0,1,2.15.62c11.74-10.84,18.5-16.85,28.5-25.32a3.63,3.63,0,0,1-.57-2.35s0,0,0-.06c-13.63-4.67-21.79-7.17-34.31-10.77a6,6,0,0,1-3.19,1.49C695,422.76,689.39,449.07,685.12,470.16Zm14-74.15c-19.58,18.91-39.32,40-63.2,67.41a4.78,4.78,0,0,1,.55,3.54,7,7,0,0,1-4.77,5c-2.06,11.52-3.31,19.14-5.08,31.2a4.24,4.24,0,0,1,2.44,1.59s0,.09.05.12c15.39-9.24,31.41-18.48,48.65-28.06a5,5,0,0,1,0-1.8,6.28,6.28,0,0,1,5.07-5C687.08,448.93,692.61,422.66,699.12,396Zm-33-25.72a298.7,298.7,0,0,1,31.62,18.51,200,200,0,0,0-13.22-20.61,9.29,9.29,0,0,1-1.28.09,6,6,0,0,1-.74,0,3.38,3.38,0,0,1-2-.83c-5.1.88-8.92,1.55-14.15,2.53A2.52,2.52,0,0,1,666.14,370.29Zm-6.51,30.53a4.29,4.29,0,0,1,2.42,1.3l34.47-9.65c0-.11,0-.21.05-.35A4.43,4.43,0,0,1,697,391a314.84,314.84,0,0,0-33-19.25,5.32,5.32,0,0,1-1,.37Zm.37-28.54c-43.77,26.65-79.17,60.57-108.37,91.23L596,438.41a4.64,4.64,0,0,1,.07-1.74,6.75,6.75,0,0,1,6.1-5.11,4,4,0,0,1,3.25,1.45l48.13-27.34a3.17,3.17,0,0,1-.07-1.54,4.86,4.86,0,0,1,3.89-3.26l3.35-28.51-.37,0C660.21,372.33,660.11,372.29,660,372.28Zm-73.31,17a622.58,622.58,0,0,1,71.21-19.9l0-.06a2.21,2.21,0,0,1,.73-.9,98.9,98.9,0,0,0-9.91-6.52,12.31,12.31,0,0,1-2.16.24c-.39,0-.71,0-1,0l-.15,0A365,365,0,0,0,586.69,389.28ZM577.75,391a2.62,2.62,0,0,1,.92.25c20.56-12,38.88-21.05,57.6-28.22-15.86,2.62-31.51,5.62-47.39,9.19A9.28,9.28,0,0,1,585,374.5,136.92,136.92,0,0,0,577.75,391Zm-3,7.21c-8.84,19-17.28,39.93-26.28,65.2l.09,0c28.84-30.45,63.88-64.33,107.12-91.18a608.36,608.36,0,0,0-76.31,22.15l0,.09A8.56,8.56,0,0,1,574.76,398.18Zm-63.15,53.47a4.58,4.58,0,0,1-.36,2.45,4.85,4.85,0,0,1-.25.51c11.31,3.75,18.75,6.39,31.47,11.29a7.83,7.83,0,0,1,3.55-2.45c8.93-25.16,17.32-46.06,26.07-65A692.36,692.36,0,0,0,511.61,451.65ZM515.8,401c-2.93,16-5.3,32.32-7.11,48.82a3,3,0,0,1,1.41.07,693.26,693.26,0,0,1,60.42-53.13,2.62,2.62,0,0,1,0-.74c-16.9.77-34.07,1.7-52.22,2.92A10.61,10.61,0,0,1,515.8,401Zm-34.89,43.91h0a2.27,2.27,0,0,1,2.64.9,3.62,3.62,0,0,1-.16,3.11l0,0c7.63,1.28,12.76,2.25,20.74,3.81a9.54,9.54,0,0,1,2.11-1.91c1.77-16.5,4.15-32.92,7.06-49a2.88,2.88,0,0,1-.92,0,2.7,2.7,0,0,1-1-.39c-9.23,5.34-15.33,9.2-24.85,15.49a9.19,9.19,0,0,1-.36,1,10,10,0,0,1-3.12,3.47C482.19,430.28,481.63,436,480.91,444.93Zm-5.16,21.52a2.12,2.12,0,0,1,1.65,1,1,1,0,0,1,.15.32c8.95-4.61,15.36-7.8,25.13-12.47,0-.07.06-.18.11-.29a.75.75,0,0,1,.06-.13c-7.79-1.53-12.92-2.48-20.79-3.79a10.23,10.23,0,0,1-2.62,2.29C478,458.18,477,461.79,475.75,466.45ZM461,510.66a2.24,2.24,0,0,1,1.27.9,4.21,4.21,0,0,1,0,3.65,12,12,0,0,1-1.77,3.27c.67,1.68,1.35,3.16,2.06,4.7,3.61-4.27,7.39-8.57,11.35-12.74a4.62,4.62,0,0,1,.3-2.69c.94-2.69,3.45-5.12,5.68-5.56,7.56-14.24,15.42-28.75,23.42-43.29a2.29,2.29,0,0,1-.59-.64,2.2,2.2,0,0,1-.13-.34c-9.63,4.58-15.86,7.72-25.18,12.5a2,2,0,0,1-.1.37,9.78,9.78,0,0,1-4.38,4.85C468.29,488.5,465.34,497.12,461,510.66Zm-74,85.25c-.51,2.58-2.06,4.84-3.66,5.27-2.44,7.1-4.18,12.23-6.62,19.57a4.45,4.45,0,0,1,.57,2.09c4.92-1.16,8.94-2.09,15.16-3.44a7.33,7.33,0,0,1,2.62-4.19c1.92-17,4.05-34.48,6.34-52.39a2,2,0,0,1-1.07-.76,3.47,3.47,0,0,1-.5-1.21c-8.37,4.47-13.3,7.31-20.33,11.61a10.31,10.31,0,0,1-1,2.77c1.73,5.88,3,10.09,5,16.34a3.75,3.75,0,0,1,1-.43,1.9,1.9,0,0,1,1.93.78A5.36,5.36,0,0,1,387,595.91Zm10.91,14.78c6.14-16.44,12.31-32.56,18.44-48.19,0,0-.06-.06-.1-.1a4.74,4.74,0,0,1-.63-3.27c-3.45-.09-6.13-.13-9.48-.19a7.84,7.84,0,0,1-2.33,3.25C401.68,578.69,399.7,595,397.9,610.69Zm22.21-57.86a2.32,2.32,0,0,1,2.4.95A3.08,3.08,0,0,1,423,555c6.68-3.15,11.61-5.44,19.28-8.8a.35.35,0,0,0,0-.06,6.71,6.71,0,0,1,.55-1.69c-5.7-4.44-9.67-7.47-14.31-11.05l-3-2.35a5.52,5.52,0,0,1-2.82,2.13,4.1,4.1,0,0,1-.91.05,1.33,1.33,0,0,1-.48-.1c-5.58,7.9-9.29,13.36-14.71,21.53a5.34,5.34,0,0,1,.09,2c3.3,0,6,.1,9.52.2C417.06,554.78,418.58,553.16,420.11,552.83Zm23.95-10.39a5.38,5.38,0,0,1,3-2.08c.62-1.74,1.16-3.4,1.7-5a123.45,123.45,0,0,1,5.84-15.17,2.6,2.6,0,0,1-.38-.47,3.28,3.28,0,0,1-.43-1.41c-10.63,3.41-17.1,5.82-26.68,9.57-.11.33-.24.79-.4,1.16l3.28,2.53C434.55,535.11,438.47,538.12,444.06,542.44Zm5.87-3.44c3.44-4.45,7.12-9.15,11-13.85-.75-1.58-1.49-3.27-2.23-4.94a5.92,5.92,0,0,1-1.68.72l-.26,0a124.25,124.25,0,0,0-5.85,15.12C450.59,537.06,450.26,538.06,449.93,539Zm-37.81-19.43c.26.18.53.35.75.51,2.69,1.7,4.91,3.22,8.44,5.32a6.07,6.07,0,0,1,3.11-2.45,2.18,2.18,0,0,1,2.37.86,2.91,2.91,0,0,1,.53,1.49c9.38-3.67,15.95-6,26.89-9.54a9.6,9.6,0,0,1,4.25-4.76c4.41-13.73,7.32-22.39,11.84-34.89a1.86,1.86,0,0,1-.95-.65c-9.42,6.7-15.34,11.11-24,17.75a7.88,7.88,0,0,1-.36,1.16c-1,2.56-3.28,4.91-5.23,5.43a2.23,2.23,0,0,1-1,.1,2.12,2.12,0,0,1-1.36-.82c-9.62,6.86-15.75,11.54-24.53,18.51-.07.28-.15.58-.27.93A9.75,9.75,0,0,1,412.12,519.57Zm-34,48.4a2.09,2.09,0,0,1,1,.64,3.57,3.57,0,0,1,.44,1.14c6.7-4.06,11.83-7,20.31-11.51h0c.55-2.7,2.36-5.16,4.08-5.57a2.45,2.45,0,0,1,1.24,0c5.31-8,9.05-13.49,14.67-21.48a5.74,5.74,0,0,1,0-2.61,6.08,6.08,0,0,1,.37-1.19c-3.57-2.13-5.86-3.62-8.6-5.44a2.8,2.8,0,0,0-.73-.46,6.43,6.43,0,0,1-3,2.33,2.56,2.56,0,0,1-.88.09,1.49,1.49,0,0,1-1.23-.83,3.61,3.61,0,0,1-.11-2.91c-8.64,0-13.61.13-20.51.43a9.62,9.62,0,0,1-1.65,2.34A406.87,406.87,0,0,0,378.12,568Zm-23.47.84a433.39,433.39,0,0,1,25.15-46.35c0-.06,0-.12,0-.21a141.59,141.59,0,0,0-19.59,10.16,13,13,0,0,1-1.25,3C357.37,546.59,356,557.84,354.65,568.81Zm21.1.23a418.65,418.65,0,0,1,5-43.76,443.23,443.23,0,0,0-25.89,48.6,3.14,3.14,0,0,1,0,.48c5.54-.83,10.31-1.47,19.35-2.38A9.32,9.32,0,0,1,375.75,569Zm-13.87,69.33c3.08-4,5.6-7.22,9.23-11.66a8.3,8.3,0,0,1,.11-1.82c.37-2.19,1.67-4.63,3.37-5.08,2.41-7.25,4.16-12.4,6.61-19.5a5.4,5.4,0,0,1-.46-3.79,9.06,9.06,0,0,1,1-2.9c-2.09-6.45-3.39-10.66-5-16.23l-.07,0C371.57,598.08,366.61,618.52,361.88,638.37Zm5.67,56.85c7.95-22.78,16.27-46.13,25.36-71.1a4.17,4.17,0,0,1-.71-2.32c-6.12,1.34-10.09,2.27-15.17,3.48-.6,2.46-2.06,4.33-3.53,4.48a1.77,1.77,0,0,1-.46,0,1.86,1.86,0,0,1-1.05-.51c-3.66,4.48-6.21,7.81-9.7,12.33a10,10,0,0,1-.12,1.71,9.68,9.68,0,0,1-1.17,3.24c1.62,16.32,3.78,32.64,6.41,48.7Zm52.38-61.63-.05-.05a5.41,5.41,0,0,1-.76-4.16,1.67,1.67,0,0,0,.05-.18l-1.57-.56c-7.52-2.54-12.49-4.26-19.25-6.64-.8,1.72-2.06,2.94-3.35,3.11-9.1,25-17.46,48.45-25.43,71.32a6.09,6.09,0,0,1,.62,3.94,7.57,7.57,0,0,1-1.11,3c3.18,11.43,6.26,18.42,12.57,30a2.78,2.78,0,0,1,1-.12h0c.09,0,.19,0,.3.07C392.67,699,405.87,667.1,419.93,633.59Zm50.59,93.24a5.54,5.54,0,0,1,.86-3.08,171.23,171.23,0,0,1-9.38-15,3.87,3.87,0,0,1-2,.52l-.31,0a3.85,3.85,0,0,1-.41-.09,279.29,279.29,0,0,0-12.06,31,4.41,4.41,0,0,1,.61.71c8.1-4.55,13.75-7.69,22.9-12.74A5.44,5.44,0,0,1,470.52,726.83ZM434,673.19c7.61,8.71,15.68,17.52,24,26.32a4.35,4.35,0,0,1,3-1.24c2.53.05,4.3,2.67,4,5.72a6.49,6.49,0,0,1-1.24,3.2c3.25,5.65,5.63,9.66,9.37,15a3.73,3.73,0,0,1,2-.43,4,4,0,0,1,1,.16c2.56-5.88,4.95-10.63,7.83-16.32l2-4a5.86,5.86,0,0,1-1.32-4.4,6.8,6.8,0,0,1,.61-2.22c-8.35-8.46-13.54-13.83-20.57-21.34a4.18,4.18,0,0,1-3,1.32l-.41,0a3.41,3.41,0,0,1-2.37-1.39,5,5,0,0,1-1.05-2.86c-9.08.42-14.93.73-23.42,1.18A7.68,7.68,0,0,1,434,673.19Zm-2.14,2.58c.63,15.89,1.6,30.16,3,43.3a5.45,5.45,0,0,1,3.61,5.06,5,5,0,0,1-1.09,3.44c2.13,4.08,3.85,7.3,6.11,11.48a3.11,3.11,0,0,1,1.09-.13l.21,0a3,3,0,0,1,.43.11,282.8,282.8,0,0,1,12.15-31.14,5.62,5.62,0,0,1-1.3-4.36,6.53,6.53,0,0,1,.62-2.16c-8.33-8.72-16.4-17.56-24-26.24A7.46,7.46,0,0,1,431.84,675.77Zm-9.15-41.16c-.15,0-.29.07-.41.08H422c-14.09,33.54-27.32,65.54-37,99.88a5.51,5.51,0,0,1,.84,1.32c14.38-4,28.66-7.84,44.17-12,0,0,0-.08,0-.11a4.86,4.86,0,0,1,1.29-3.77,2.86,2.86,0,0,1,1.24-.83c-1.34-13.06-2.32-27.16-2.94-42.83h-.05a3.12,3.12,0,0,1-2.15-1.26,5.74,5.74,0,0,1-.94-4.22,7.41,7.41,0,0,1,2.06-4.2C426,654.2,424.58,646.31,422.69,634.61Zm4.87-14.68a5.2,5.2,0,0,1-.39-2c-10.89,1-17.65,1.65-26.32,2.6,5.91,2.07,10.63,3.64,17.48,6l1.57.53a5.26,5.26,0,0,1,3.78-3.17,2.75,2.75,0,0,1,1.26.22C425.81,622.67,426.65,621.36,427.56,619.93Zm1.62-7.4c-3.44-15.94-6.79-32.52-10-49.39a3,3,0,0,1-.56.18h-.08c-6.64,16.92-13.35,34.49-20,52.33a4.59,4.59,0,0,1,.73,2.68c9.53-1,16.46-1.77,28.28-2.76A7.93,7.93,0,0,1,429.18,612.53ZM444,550.86a2.6,2.6,0,0,1-1.14-.89,3.8,3.8,0,0,1-.54-1.28c-7.49,3.26-12.4,5.55-19.31,8.88v.06a8.58,8.58,0,0,1-1.83,3.93c3.22,16.82,6.57,33.35,10,49.27C435.49,589.92,439.73,570.19,444,550.86Zm-10.41,59.48c12.9-20.69,25.05-39.75,37-58a5.53,5.53,0,0,1-.4-3.58,9,9,0,0,1,1.49-3.36c-1.65-3.14-3.2-6-4.62-8.56-1.77-3.28-3.43-6.28-5-9.4-4.18,5.08-8.08,10.08-11.72,14.9a6,6,0,0,1,.07,2.91,7.75,7.75,0,0,1-4,5.48C442.12,570,437.93,589.56,433.61,610.34Zm71.18,14.35a6.86,6.86,0,0,1-.4-2.58c-22.81-1.84-46.17-3.31-69.62-4.38a1.16,1.16,0,0,1-.06.15C448,629.23,461.77,640.76,476.57,653a4.71,4.71,0,0,1,3.51-1.84,3.54,3.54,0,0,1,2.07.65C490.52,641.7,496.13,635,504.79,624.69Zm1.25-7.05c-11.08-22.86-21.12-44-30.56-64.43a5,5,0,0,1-1.86.75,3.21,3.21,0,0,1-.82,0,2.56,2.56,0,0,1-.46-.11c-12.06,18.51-24.39,37.86-37.51,58.87a5.8,5.8,0,0,1,.41,2.73c23.43,1,46.78,2.49,69.57,4.38A7.24,7.24,0,0,1,506,617.64Zm11.52-56.48a3.33,3.33,0,0,1-1.84-1.28,5.33,5.33,0,0,1-.73-4.07c-14.28-2.54-23.22-3.91-36.8-5.77a7.23,7.23,0,0,1-.93,1.5c9.45,20.5,19.51,41.66,30.57,64.52a5.34,5.34,0,0,1,1-.45C511.45,597.87,514.37,579.58,517.56,561.16Zm-4.63,55.74a9.36,9.36,0,0,1,.59,1.06c20.25-9.57,38.67-17.81,56-25.09a6.24,6.24,0,0,1,.08-1.11,7.38,7.38,0,0,1,2.67-4.64c-3.85-14.65-6.7-32-8.86-45.08-.07-.47-.13-.89-.2-1.32a4.52,4.52,0,0,1-.77.12q-.39,0-.69,0a3.74,3.74,0,0,1-2.61-1.54,4.47,4.47,0,0,1-.57-1c-7.55,3.4-22.14,10.4-34,16.16a7.45,7.45,0,0,1-4.66,6.67c-3.18,18.47-6.13,36.79-8.76,54.58A3.92,3.92,0,0,1,512.93,616.9Zm34.2,46c9.25-7.66,15.6-12.83,25.24-20.67a6.43,6.43,0,0,1-.31-2.84v0c-20.74-5.79-40.1-11-58.83-15.8a5.34,5.34,0,0,1-.47.82c8.42,11.71,17.57,24,28.27,38a5.05,5.05,0,0,1,3-.95A4.43,4.43,0,0,1,547.13,662.91Zm10.23,15.7c5.06-10.72,10.47-22,16.38-34.1a1.79,1.79,0,0,0-.24-.24c-9.56,7.78-15.87,13-25.2,20.65a6.27,6.27,0,0,1,.33,2.72,7.18,7.18,0,0,1-1.22,3.28c2.15,3,4,5.43,6.13,8.38a4.79,4.79,0,0,1,3-.81A4.44,4.44,0,0,1,557.36,678.61ZM581.6,707a6.36,6.36,0,0,1-.49-3.1,6.59,6.59,0,0,1,.31-1.49c-8.06-5.31-13.58-8.88-21.69-14.09a3.92,3.92,0,0,1-1,.91c3.27,9.65,5.55,16.09,8.83,25.08a3.91,3.91,0,0,1,1.32-.13l.16,0a5.36,5.36,0,0,1,2.77,1.29c2.21-1.88,4.17-3.61,6.2-5.4C579.15,709.08,580.34,708,581.6,707Zm2.86-8.15L582.39,684q-2.68-19.1-5.31-38.19c-.13,0-.26,0-.41,0l-.33,0a2.47,2.47,0,0,1-.58-.13c-5.91,12.11-11.31,23.35-16.37,34.1a6,6,0,0,1,1.75,5,6.42,6.42,0,0,1-.33,1.47c8.16,5.28,13.69,8.88,21.7,14.16A5.28,5.28,0,0,1,584.46,698.8Zm2.65-.51a5.26,5.26,0,0,1,2.72,1.28l50.54-46.09c-19.41-4.28-38.84-8.21-58.14-11.78a6.82,6.82,0,0,1-2.93,3.39c1.78,12.87,3.59,25.7,5.37,38.57l2.05,14.63a.81.81,0,0,1,.22,0Zm9.8,63.24c4.52-10.82,7.5-18,12-28.9a5.92,5.92,0,0,1-2.37-5.6,7,7,0,0,1,.7-2.39c-6.61-6-11.21-10.21-17.53-15.85a4.77,4.77,0,0,1-1.43,1c2.28,17.4,4.93,34.4,8,51.63C596.5,761.42,596.72,761.49,596.91,761.53Zm2.08,1a4.21,4.21,0,0,1,.76.7c16.46-9.28,32.86-18.52,49-27.49a7.81,7.81,0,0,1-.21-1.35c-12-2.08-19.8-3.32-31.32-4.94a5.77,5.77,0,0,1-5.81,4.16l-.12,0c-.07,0-.13,0-.22-.05C606.53,744.44,603.54,751.64,599,762.52Zm47.36,11.66a5.55,5.55,0,0,1-.9-2.17c-14.51-1.39-29.4-2.7-44.36-3.82a4.63,4.63,0,0,1-1.54,2.55c-.15.1-.32.2-.48.32,6.58,16.15,13.41,31.83,20.72,47.53a6.6,6.6,0,0,1,.77,0,6.09,6.09,0,0,1,1,.24C629.75,804.14,638.12,789.11,646.35,774.18Zm2,1.83a1.66,1.66,0,0,1-.3-.19c-8.09,14.66-16.33,29.44-24.35,43.87,4.85-3,8.49-5.26,13.39-8.35a4.52,4.52,0,0,1-.5-2.26,4.06,4.06,0,0,1,1.48-3,4.8,4.8,0,0,1,3.56-1.08C643.88,795.18,645.57,787.89,648.38,776Zm3.68-36.47a5.74,5.74,0,0,1-2.31-1.76c-16,9-32.42,18.16-48.82,27.43a5.92,5.92,0,0,1,.18.67c15,1.1,29.87,2.39,44.42,3.81a5,5,0,0,1,1.67-2.64,5.71,5.71,0,0,1,1.48-.79C649.84,756.58,650.64,750.08,652.06,739.54Zm55-14a4.5,4.5,0,0,1-.16-.44c-15.83,3-31.74,6-47.44,9.12a4.61,4.61,0,0,1,0,.53,6.12,6.12,0,0,1-2.08,4,5.41,5.41,0,0,1-3,1.12c-1.38,10.28-2.16,16.7-3.3,26h0a5.8,5.8,0,0,1,3,1.35C672.89,752.79,690.34,739.07,707,725.57Zm1.77-7.56c-7.08-17.45-13.16-32.54-18.78-46.56a4.62,4.62,0,0,1-2,.18h0a5.36,5.36,0,0,1-1-.26c-10.71,21.32-20.39,40.45-29.45,58.22A6,6,0,0,1,659,732c15.72-3.09,31.63-6.12,47.49-9.1,0-.21,0-.43,0-.63A6.45,6.45,0,0,1,708.79,718Zm3.61-1.21c4.34-17.19,8.68-34.72,13-52.27a6.06,6.06,0,0,1-2.77-3.92c-10.34,1.24-17.59,2.18-28.32,3.7a6.84,6.84,0,0,1,0,1.64,7.05,7.05,0,0,1-2.11,4.27,1.36,1.36,0,0,1-.2.11c5.65,14,11.71,29.13,18.8,46.64A4,4,0,0,1,712.4,716.8Zm30.26-6q-6.95-22.83-13.91-45.63a4.76,4.76,0,0,1-1.14.07c-4.31,17.5-8.68,35-13,52.27a5.81,5.81,0,0,1,2.55,3.21c8.6-1.76,14.58-3,22.83-4.6,0-.27,0-.53,0-.8A6.55,6.55,0,0,1,742.66,710.82Zm3.66-.83a5.58,5.58,0,0,1,4.27,3.93l1.64-.34c6.1-1.34,10.91-2.37,17.25-3.72a8,8,0,0,1,0-1c.43-3.46,3.18-5.85,6.21-5.38a4.8,4.8,0,0,1,2,.9c9.56-12,19.11-24.12,28.47-36.29a7.25,7.25,0,0,1-1-3c-24.11-2-48.24-3.68-71.9-4.91a6.7,6.7,0,0,1-1.91,3.63c-.18.13-.38.25-.6.43q7,22.88,13.94,45.74a4.19,4.19,0,0,1,1.27,0Zm41.51,63.36c-3.71-16.93-7.79-35.34-12.7-57.15a5.34,5.34,0,0,1-.8,0l-.26-.05a5.85,5.85,0,0,1-4.25-4c-6.23,1.34-11.05,2.35-17.11,3.66l-1.72.41a7.56,7.56,0,0,1,0,.91,6.28,6.28,0,0,1-2.85,4.58q5.53,21.81,11.07,43.58c1.8,6.93,3.57,13.94,5.32,20.9a4.71,4.71,0,0,1,1.18.1,5.15,5.15,0,0,1,3.17,2c5.91-3,10.22-5.26,16.16-8.36a6,6,0,0,1-.13-2.51A5.63,5.63,0,0,1,787.83,773.35Zm20.66-103a2.72,2.72,0,0,1-.72-.42c-9.36,12.15-18.87,24.29-28.42,36.22a7.12,7.12,0,0,1,1,4.65,6.36,6.36,0,0,1-2.95,4.75c4.89,21.87,9,40.31,12.7,57.23h.05C796.41,741.65,802.45,708,808.49,670.32Zm24.5,61.3c-6.4-18.83-13.39-38.85-21.28-60.83a3.39,3.39,0,0,1-1,.13c-6,37.65-12.06,71.24-18.37,102.34a3.75,3.75,0,0,1,1.13.76c12.2-10.6,24.65-21.91,37.83-34.4a7.12,7.12,0,0,1-.51-3.89A6.29,6.29,0,0,1,833,731.62Zm39.7,86.9a6.35,6.35,0,0,1-.52-1.56c-17.72,1.5-36.95,2.66-59.68,3.62,0,.06,0,.13,0,.2a5.43,5.43,0,0,1-1.4,2.49c6.45,10.2,13.27,21.18,20.75,33.25a7.06,7.06,0,0,1,2.75,0,4.74,4.74,0,0,1,1.18.51A505.42,505.42,0,0,0,872.69,818.52Zm2.34,2a4.34,4.34,0,0,1-.7-.3,523.86,523.86,0,0,1-36.55,38c10.85-3.54,17.76-6.67,28.35-11.4l1.15-.51a4.81,4.81,0,0,1,.21-1.8,5.75,5.75,0,0,1,4.28-3.94C873,833.74,873.88,828.46,875,820.52Zm-11.27-42.14a4.34,4.34,0,0,1-1.44.09l-.47-.08a4.38,4.38,0,0,1-2.19-1.26c-16.72,15.35-32.35,28.64-47.55,40.36a4.43,4.43,0,0,1,.3.79c22.79-.95,42-2.12,59.78-3.61,0-.07,0-.15,0-.27a6.05,6.05,0,0,1,2.16-3.33C870.67,799.07,868.07,791,863.76,778.38ZM888.58,762a4,4,0,0,1-2.89.8,2.83,2.83,0,0,1-.42-.07c-2.48-.59-4.11-3.44-3.87-6.53-14.89-5.14-28.92-9.77-42.61-14.22a4.74,4.74,0,0,1-3.38,1l-.22,0c-8.3,25.86-16.67,49.49-25.45,72a3.62,3.62,0,0,1,1,.66c15.24-11.77,30.9-25.08,47.65-40.46a7.11,7.11,0,0,1-.38-3.76c.58-3.22,3.3-5.49,6.06-4.85a5.51,5.51,0,0,1,3.92,4.91l25.12.59a7.26,7.26,0,0,1,.89-2.26l-2.3-3.32C890.67,765.05,889.66,763.62,888.58,762Zm52.6-3.42c-18.55-14.4-36.85-28.06-55-41.19a4.1,4.1,0,0,1-3.67,1.6L882,719c-2.58-.65-4.33-3.91-3.93-7.38-21.11-15-42.11-29.31-63.28-43.09a6.18,6.18,0,0,1-1.05,1.21c7.89,22,14.91,42.06,21.31,60.9a4.4,4.4,0,0,1,1.81,0c2.82.61,4.73,3.9,4.22,7.26a7.14,7.14,0,0,1-.74,2.3c13.38,4.33,27,8.88,41.55,13.86,1-2.39,3.13-3.89,5.32-3.38s3.59,2.67,3.84,5.22c16.21,1,32.95,2,50,3.14C941.13,758.86,941.16,758.74,941.18,758.61Zm.23-2.75c-11.88-20.35-23.29-39.57-34.74-58.52a3.51,3.51,0,0,1-2.51.68,2,2,0,0,1-.44-.1,4.52,4.52,0,0,1-2.49-1.71c-5.11,4.72-9,8.35-14.18,13a8.07,8.07,0,0,1,.69,4.43,6.6,6.6,0,0,1-.45,1.75Q914.14,734.74,941.41,755.86Zm4-1.67c4.59-23.05,8.88-46.67,13-71.76a6.5,6.5,0,0,1-1.79-3.25c-15.43,4.09-31,8.07-46.1,12l-1.41.34a10.67,10.67,0,0,1,0,1.11,7.47,7.47,0,0,1-.91,2.92c11.62,19.17,23.21,38.68,35.23,59.3A3.67,3.67,0,0,1,945.45,754.19Zm38-62.76a9.72,9.72,0,0,1-.71-3.94c-6.77-2.9-11.52-4.93-18.37-7.72a5.67,5.67,0,0,1-1.7,2.92,2.84,2.84,0,0,1-2,.71c-4.11,24.76-8.36,48.08-12.91,70.86C960,734.32,971.69,713.64,983.5,691.43Zm-10.61-64.87h-.12l-.2,0c-3,14.54-6.24,29.84-9.66,45.26a8.46,8.46,0,0,1,1.84,5.68c7,2.84,11.71,4.83,18.35,7.65a5.88,5.88,0,0,1,1.36-2.55C980.55,662.74,976.72,644.28,972.89,626.56Zm-6.66-47.37a4.28,4.28,0,0,1-.71.86h0c2.78,12.32,4.54,20.7,7.12,33.72.18,0,.39.05.61.1a5.23,5.23,0,0,1,2.51,2.57c4.89-3.69,8.43-6.34,13.29-10a9.5,9.5,0,0,1-.22-2.59c0-.43.07-.71.12-1.09C980.87,594,975.35,588.2,966.23,579.19Zm21.44-24.36c-5.68-24.75-10.95-46-16.38-66.12a7.83,7.83,0,0,1-3.4-4c-14-.08-27.91.09-41.3.58,0,.05,0,.09,0,.14a4.59,4.59,0,0,1-.69,3.23C940.48,517,952.38,542,962,568.18a2.9,2.9,0,0,1,1.42.14,5.59,5.59,0,0,1,2.93,3.14l4-2c6-3.05,10.62-5.3,16.27-8.35a13,13,0,0,1-.36-1.88c-.16-1.85.22-3.37,1-4.14A1.61,1.61,0,0,1,987.67,554.83Zm23.76-.28c-.06-.28-.11-.53-.15-.83a7.72,7.72,0,0,1,.11-2.46c-12.15-21.37-24.39-41.49-37.32-61.11,5.27,19.61,10.42,40.44,15.93,64.54a7.57,7.57,0,0,1,3.2,3.91C1000.41,557,1005,556,1011.43,554.55Zm1.9-5.46c-1.3-22.27-2.9-44.21-4.81-65.59-11.79.31-22.88.65-33.56,1.09,0,.06,0,.14,0,.22a5.39,5.39,0,0,1-.13,2.4c13.16,19.93,25.65,40.32,38,62A1.76,1.76,0,0,1,1013.33,549.09Zm3.57,2.74c6.43-5.28,10.85-9,15.8-13.14,1.58-1.34,3.22-2.71,5-4.23a11.09,11.09,0,0,1-.44-2.21,5,5,0,0,1,.64-3.44c-4-14.2-8.46-28.12-13.2-41.56a1.82,1.82,0,0,1-.31-.1,7.64,7.64,0,0,1-3.08-3.87l-10.49.15c1.91,21.75,3.54,44.09,4.85,66.76A7.4,7.4,0,0,1,1016.9,551.83Zm15.71-2a1.74,1.74,0,0,0-2.23.26c-.76.71-1.08,2.14-.91,4,.31,3,1.82,6,3.44,6.87a2,2,0,0,0,.75.25,1.75,1.75,0,0,0,1.44-.49c.75-.75,1.07-2.18.86-4C1035.7,553.75,1034.22,550.69,1032.61,549.85ZM926.18,865.37a4.64,4.64,0,0,0-.2-3.82,3.59,3.59,0,0,0-2.42-1.79c-2.33-.46-4.94,1.24-5.82,3.68a4.66,4.66,0,0,0,.18,3.78,3.64,3.64,0,0,0,2.5,1.76l.3,0A5.43,5.43,0,0,0,926.18,865.37Zm161.93-262.86a1.69,1.69,0,0,0-.69-.33,1.05,1.05,0,0,0-.89.3c-1,.79-1.14,3-1.18,4-.09,2.36.32,5.41,1.32,6.27a1.07,1.07,0,0,0,.65.39,1.1,1.1,0,0,0,.86-.31c.86-.69,1.11-2.8,1.19-3.93C1089.52,606.4,1089.13,603.39,1088.11,602.51ZM887.5,910.59a6.12,6.12,0,0,0-3.81.44c-7.57-5.43-12.61-8.93-20.73-14.47.07-.12.14-.23.2-.35a2.88,2.88,0,0,0,.29-2.06c6-3,10.35-5.46,16.69-9.32a3.59,3.59,0,0,0,1.63.7l.41.09a5.48,5.48,0,0,0,5.55-3.16,3.73,3.73,0,0,0-.11-3.25,3.59,3.59,0,0,0-2.66-1.88,5.56,5.56,0,0,0-5.9,3.12,3.83,3.83,0,0,0-.23,2.44c-6.32,3.87-10.64,6.28-16.7,9.31a4.5,4.5,0,0,0-1.67-.66c-2.4-.47-5,.65-5.92,2.59a2.94,2.94,0,0,0-.1,2.63,4,4,0,0,0,2.81,1.92l.45.07a6,6,0,0,0,3.46-.6c8.19,5.56,13.24,9.06,20.61,14.32a1.38,1.38,0,0,0-.17.25,2.8,2.8,0,0,0-.25,2.43,3.57,3.57,0,0,0,2.65,2l.69.13a5.4,5.4,0,0,0,5.21-2.18,2.47,2.47,0,0,0,.24-2.47A3.58,3.58,0,0,0,887.5,910.59Zm-60,10.58a1.24,1.24,0,0,1-.22,1.68,1.17,1.17,0,0,1-.74.24,1.11,1.11,0,0,1-.92-.47l-14.06-18.43a6.88,6.88,0,0,1-1.2,0,7.14,7.14,0,0,1-1.14-.19,4.27,4.27,0,0,1-3-2.2,2,2,0,0,1,.15-1.89,3,3,0,0,1,.57-.63c-4-3.69-7-6.54-11.53-10.87a6.26,6.26,0,0,1-2.3.13,5.69,5.69,0,0,1-.84-.17,4.35,4.35,0,0,1-3.2-2.21,2.77,2.77,0,0,1-.06-2.27c.61-1.46,2.5-2.4,4.57-2.34,1.51-4.48,2.57-8.09,4-13.66a4.88,4.88,0,0,1-2.32-2,3.5,3.5,0,0,1-.35-2.9,4.56,4.56,0,0,1,.24-.55l-9-6a5.43,5.43,0,0,1-3.68.86c-.22,0-.4,0-.63-.08a5.15,5.15,0,0,1-3.25-2.28,3.81,3.81,0,0,1-.48-3.1,5,5,0,0,1,6-3.24,5.5,5.5,0,0,1,3.33,2.31,4.09,4.09,0,0,1,.45,3.19,3.1,3.1,0,0,1-.25.57c3.28,2.15,5.87,3.9,9.11,6A5.53,5.53,0,0,1,801,860a5,5,0,0,1,3.18,2.29,3.74,3.74,0,0,1,.35,3,4.39,4.39,0,0,1-1.15,1.71c4,5.2,6.72,8.81,10.4,13.6a5.47,5.47,0,0,1,2.78,0,4.73,4.73,0,0,1,3.12,2.31,3.14,3.14,0,0,1,.08,2.61,4.73,4.73,0,0,1-4.23,2.43c-1,4.38-1.68,7.27-2.7,10.58a4.12,4.12,0,0,1,2.51,2.06,2.05,2.05,0,0,1,.06,1.44,2.58,2.58,0,0,1-1.35,1.49Zm-17-23c1-3.37,1.76-6.22,2.7-10.53a4.35,4.35,0,0,1-2.65-2.14,2.85,2.85,0,0,1-.08-2.47,3.55,3.55,0,0,1,1.12-1.41c-3.6-4.68-6.34-8.31-10.34-13.53a5.07,5.07,0,0,1-1.45.22c-1.44,5.51-2.53,9.27-4,13.72a4.82,4.82,0,0,1,2.25,1.93,2.87,2.87,0,0,1,0,2.4,3.17,3.17,0,0,1-.65.92c4.48,4.26,7.55,7.12,11.68,11A8.65,8.65,0,0,1,810.53,898.14ZM977.24,871.5a5.05,5.05,0,0,0-.19-4.09,3.24,3.24,0,0,0-2.08-1.54,3.47,3.47,0,0,0-1.47.07c-3.62-15.06-6.85-28-10-40a6.79,6.79,0,0,0,1.81-3,5.57,5.57,0,0,0-.38-4.47A3.43,3.43,0,0,0,963.4,817c.15-.8.29-1.63.45-2.41a125.41,125.41,0,0,0,2.58-19.1c1.67-.49,3-2.38,3.34-4.91.39-3.25-1-6.27-3.26-6.8s-4.51,1.67-5,4.95c-.39,3,.71,5.64,2.59,6.55a128.41,128.41,0,0,1-2.54,18.9c-.16.88-.34,1.78-.51,2.67a6,6,0,0,0-3.83,4.21,5.6,5.6,0,0,0,.36,4.44,3.54,3.54,0,0,0,2.2,1.66l.35.07a3.58,3.58,0,0,0,1.3-.12c3.1,12,6.31,24.92,9.92,39.93a7,7,0,0,0-1.77,2.64,4.64,4.64,0,0,0,.19,4,3,3,0,0,0,2.11,1.58l.25,0C974.21,875.58,976.42,873.88,977.24,871.5Zm-2.54-111a2.88,2.88,0,0,0,2.2-.67,6.75,6.75,0,0,0,2.13-4.48c.35-3.35-1-6.42-3.18-7.07a2.93,2.93,0,0,0-2.65.65,6.56,6.56,0,0,0-2.13,4.49c-.38,3.39,1,6.45,3.21,7A2.13,2.13,0,0,0,974.7,760.54ZM943.07,903.81a5.44,5.44,0,0,0-5.72,3,3.76,3.76,0,0,0,0,3.13,3.57,3.57,0,0,0,.86,1.11c-3.66,6.1-6.21,10-9.93,15.18a5.34,5.34,0,0,0-5.21,2.27,2.93,2.93,0,0,0-.25,2.64,3.54,3.54,0,0,0,2.51,2,4.31,4.31,0,0,0,.77.14,5.07,5.07,0,0,0,5-2.22,3,3,0,0,0,.18-2.72,3,3,0,0,0-.88-1.19c3.65-5.06,6.28-9.1,10-15.28a5.3,5.3,0,0,0,5-3,3.84,3.84,0,0,0,0-3.31A3.31,3.31,0,0,0,943.07,903.81Z"/>
  </g>
  <g id="text">
    <g>
      <path class="cls-4" d="M100.18,978.6c14.48-11.4,33.72-17.34,56.76-17.34,18.05,0,35.86,3.56,49.16,10.21L199.69,986a114.72,114.72,0,0,0-42.28-8.09c-18.52,0-34,5.22-44.41,14.27-11.87,10-18.29,25.17-18.29,43,0,15.91,5.23,29.45,15,39.18,10.68,11.41,28,18.06,47.73,18.06a111.68,111.68,0,0,0,42.28-8.08l6.41,14.25C193,1105.19,175,1109,156.94,1109c-25.41,0-46.55-7.36-61.28-21.14C82.6,1075.26,75,1057.45,75,1035.13,75,1010.19,84.26,991,100.18,978.6Z"/>
      <path class="cls-4" d="M244.11,987.62l4.27,13.07c11.41-9.74,25.18-15.2,43.71-15.2,17.57,0,32.05,4,42.51,11.87l-9.27,13.53c-9.74-6.65-19.95-9-33.72-9-16.87,0-28.74,4-41.8,14.24v90.27H230.57V987.62Z"/>
      <path class="cls-4" d="M456,1001.16c10.69,10.45,16.63,26.13,16.63,46.32V1056H366.9c1.19,10.68,5.23,18.76,11.4,24.69,8.32,7.84,21.86,11.65,37.06,11.65A116.61,116.61,0,0,0,454.3,1086l4.76,14.26c-13.31,5.93-27.08,8.3-43.95,8.3-20.17,0-38.47-5.46-49.63-15.68C353.84,1082.15,347,1066.47,347,1047c0-18.77,6.42-34,17.1-44.41,10.92-10.93,26.6-17.1,45.84-17.1C430.08,985.49,445.51,990.71,456,1001.16Zm-78.6,13.06c-5.94,6.18-9.74,14.73-10.7,25.65h86.46c-.95-12.11-4.75-21.37-11.16-27.79-7.13-7.12-17.82-10.45-32.07-10.45C395.88,1001.63,384.72,1006.15,377.36,1014.22Z"/>
      <path class="cls-4" d="M552.87,1108.51c-17.57,0-31.59-5-41.56-14-11.88-10.45-18.77-26.84-18.77-47.5,0-18,6.42-33.25,17.11-44.17,10.92-10.93,26.83-17.34,46.78-17.34C574,985.49,588,991,599.18,1000V952h19.25v154.38H604.66l-4.29-13.07C588.27,1104.24,572.82,1108.51,552.87,1108.51Zm46.31-91.43c-10.91-9.27-23.5-15.21-41.56-15.21-14,0-25.18,3.81-32.77,10.93-8.08,7.84-12.84,19.48-12.84,34.2s4.52,27.31,13.08,35.15c6.64,6.18,16.15,9.74,28.73,9.74,18.76,0,31.35-4,45.36-13.78Z"/>
      <path class="cls-4" d="M639.32,987.62h33.73v118.76H653.81v-104l-14.49-1.42Zm38.49-32.87c0,7.13-5.22,14.59-14.26,14.59s-14-7.46-14-14.59,5-14.58,14-14.58S677.81,947.62,677.81,954.75Z"/>
      <path class="cls-4" d="M813.18,1089.75v16.63H703.47V963.88h19.71v125.87Z"/>
      <path class="cls-4" d="M821,987.62h33.73v118.76H835.51v-104L821,1000.93Z"/>
      <path class="cls-4" d="M898.69,987.62l4.26,13.07c11.18-9.5,25.43-15.2,44.19-15.2s32.78,4.25,41.8,13.53c9,9,13.78,23,13.78,43v64.37H983.47v-63.9c0-14.48-2.85-24.93-9-31.35-6.41-6.65-15.68-9.26-28.26-9.26-17.11,0-28.76,4-41.82,14.24v90.27H885.15V987.62Z"/>
      <path class="cls-4" d="M1150,1142h-19.24v-47.73c-11.16,9-26.84,14.24-43.94,14.24-19.47,0-34.93-5.7-45.84-16.14-10.45-10.46-16.38-25.42-16.38-45.37,0-16.62,5-30.16,13.77-40.62,10-12.58,25.65-20.89,47-20.89,19.47,0,34.67,4.51,46.55,15.2l4.26-13.07H1150Zm-96.43-125.64c-5.93,7.84-9.75,17.58-9.75,30.64,0,15,4,27.08,12.36,34.91,7.13,6.65,17.58,10,31.59,10,18.27,0,32.07-5.94,43-15v-61c-14-9.74-25.89-14-44.66-14C1071.37,1001.87,1060.44,1007.57,1053.55,1016.36Z"/>
      <path class="cls-4" d="M1205.08,1094.5c0,7.84-5.22,13.3-14.25,13.3s-14-5.46-14-13.3c0-7.36,5-13.3,14-13.3S1205.08,1087.14,1205.08,1094.5Z"/>
      <path class="cls-4" d="M1314.09,963.88l64.6,142.5h-20.91l-12.56-27.79h-88.84l-12.58,27.79h-20.19l64.6-142.5ZM1263.75,1062h74.09l-35.14-79.8h-3.8Z"/>
      <path class="cls-4" d="M1386.55,987.62h33.72v118.76H1401v-104l-14.48-1.42ZM1425,954.75c0,7.13-5.22,14.59-14.23,14.59s-14-7.46-14-14.59,5-14.58,14-14.58S1425,947.62,1425,954.75Z"/>
    </g>
    <path class="cls-2" d="M844.71,928.21a16.95,16.95,0,1,0,17,16.93A16.95,16.95,0,0,0,844.71,928.21Zm0,23.32a6.39,6.39,0,1,1,6.41-6.39A6.39,6.39,0,0,1,844.71,951.53Z"/>
  </g>
</svg>
